<svg xmlns="http://www.w3.org/2000/svg" viewBox="0 0 240 240"><rect width="240" height="240" fill="white"/><g transform="translate(20,20)"><rect x="0" y="0" width="25" height="25" fill="#fff" stroke="#111"/><rect x="25" y="0" width="25" height="25" fill="#111" stroke="#111"/><rect x="50" y="0" width="25" height="25" fill="#fff" stroke="#111"/><rect x="75" y="0" width="25" height="25" fill="#111" stroke="#111"/><rect x="100" y="0" width="25" height="25" fill="#fff" stroke="#111"/><rect x="125" y="0" width="25" height="25" fill="#111" stroke="#111"/><rect x="150" y="0" width="25" height="25" fill="#fff" stroke="#111"/><rect x="175" y="0" width="25" height="25" fill="#111" stroke="#111"/><rect x="0" y="25" width="25" height="25" fill="#111" stroke="#111"/><rect x="25" y="25" width="25" height="25" fill="#fff" stroke="#111"/><rect x="50" y="25" width="25" height="25" fill="#111" stroke="#111"/><rect x="75" y="25" width="25" height="25" fill="#fff" stroke="#111"/><rect x="100" y="25" width="25" height="25" fill="#111" stroke="#111"/><rect x="125" y="25" width="25" height="25" fill="#fff" stroke="#111"/><rect x="150" y="25" width="25" height="25" fill="#111" stroke="#111"/><rect x="175" y="25" width="25" height="25" fill="#fff" stroke="#111"/><rect x="0" y="50" width="25" height="25" fill="#fff" stroke="#111"/><rect x="25" y="50" width="25" height="25" fill="#111" stroke="#111"/><rect x="50" y="50" width="25" height="25" fill="#fff" stroke="#111"/><rect x="75" y="50" width="25" height="25" fill="#111" stroke="#111"/><rect x="100" y="50" width="25" height="25" fill="#fff" stroke="#111"/><rect x="125" y="50" width="25" height="25" fill="#111" stroke="#111"/><rect x="150" y="50" width="25" height="25" fill="#fff" stroke="#111"/><rect x="175" y="50" width="25" height="25" fill="#111" stroke="#111"/><rect x="0" y="75" width="25" height="25" fill="#111" stroke="#111"/><rect x="25" y="75" width="25" height="25" fill="#fff" stroke="#111"/><rect x="50" y="75" width="25" height="25" fill="#111" stroke="#111"/><rect x="75" y="75" width="25" height="25" fill="#fff" stroke="#111"/><rect x="100" y="75" width="25" height="25" fill="#111" stroke="#111"/><rect x="125" y="75" width="25" height="25" fill="#fff" stroke="#111"/><rect x="150" y="75" width="25" height="25" fill="#111" stroke="#111"/><rect x="175" y="75" width="25" height="25" fill="#fff" stroke="#111"/><rect x="0" y="100" width="25" height="25" fill="#fff" stroke="#111"/><rect x="25" y="100" width="25" height="25" fill="#111" stroke="#111"/><rect x="50" y="100" width="25" height="25" fill="#fff" stroke="#111"/><rect x="75" y="100" width="25" height="25" fill="#111" stroke="#111"/><rect x="100" y="100" width="25" height="25" fill="#fff" stroke="#111"/><rect x="125" y="100" width="25" height="25" fill="#111" stroke="#111"/><rect x="150" y="100" width="25" height="25" fill="#fff" stroke="#111"/><rect x="175" y="100" width="25" height="25" fill="#111" stroke="#111"/><rect x="0" y="125" width="25" height="25" fill="#111" stroke="#111"/><rect x="25" y="125" width="25" height="25" fill="#fff" stroke="#111"/><rect x="50" y="125" width="25" height="25" fill="#111" stroke="#111"/><rect x="75" y="125" width="25" height="25" fill="#fff" stroke="#111"/><rect x="100" y="125" width="25" height="25" fill="#111" stroke="#111"/><rect x="125" y="125" width="25" height="25" fill="#fff" stroke="#111"/><rect x="150" y="125" width="25" height="25" fill="#111" stroke="#111"/><rect x="175" y="125" width="25" height="25" fill="#fff" stroke="#111"/><rect x="0" y="150" width="25" height="25" fill="#fff" stroke="#111"/><rect x="25" y="150" width="25" height="25" fill="#111" stroke="#111"/><rect x="50" y="150" width="25" height="25" fill="#fff" stroke="#111"/><rect x="75" y="150" width="25" height="25" fill="#111" stroke="#111"/><rect x="100" y="150" width="25" height="25" fill="#fff" stroke="#111"/><rect x="125" y="150" width="25" height="25" fill="#111" stroke="#111"/><rect x="150" y="150" width="25" height="25" fill="#fff" stroke="#111"/><rect x="175" y="150" width="25" height="25" fill="#111" stroke="#111"/><rect x="0" y="175" width="25" height="25" fill="#111" stroke="#111"/><rect x="25" y="175" width="25" height="25" fill="#fff" stroke="#111"/><rect x="50" y="175" width="25" height="25" fill="#111" stroke="#111"/><rect x="75" y="175" width="25" height="25" fill="#fff" stroke="#111"/><rect x="100" y="175" width="25" height="25" fill="#111" stroke="#111"/><rect x="125" y="175" width="25" height="25" fill="#fff" stroke="#111"/><rect x="150" y="175" width="25" height="25" fill="#111" stroke="#111"/><rect x="175" y="175" width="25" height="25" fill="#fff" stroke="#111"/><rect x="25" y="25" width="150" height="150" fill="none" stroke="#e85" stroke-width="4"/><text x="42" y="205" font-size="14">6×6 interior</text></g></svg>