<svg xmlns="http://www.w3.org/2000/svg" viewBox="0 0 720 260"><rect width="720" height="260" fill="white"/><defs><g id="sq"><rect width="22" height="22" fill="white" stroke="#111"/></g></defs><text x="20" y="24" font-size="16">Pieces: bars of length 1, 2, 3, 4, and 5</text><g transform="translate(280,35)"><use href="#sq"/><g transform="translate(35,0)"><use href="#sq"/><use href="#sq" y="22"/></g><g transform="translate(75,0)"><use href="#sq"/><use href="#sq" y="22"/><use href="#sq" y="44"/></g><g transform="translate(115,0)"><use href="#sq"/><use href="#sq" y="22"/><use href="#sq" y="44"/><use href="#sq" y="66"/></g><g transform="translate(155,0)"><use href="#sq"/><use href="#sq" y="22"/><use href="#sq" y="44"/><use href="#sq" y="66"/><use href="#sq" y="88"/></g></g><text x="20" y="150" font-size="16">Choice B cannot fit the length-5 bar.</text><g transform="translate(280,145)"><rect x="0" y="0" width="22" height="22" fill="white" stroke="#111"/><rect x="22" y="0" width="22" height="22" fill="white" stroke="#111"/><rect x="44" y="0" width="22" height="22" fill="white" stroke="#111"/><rect x="22" y="22" width="22" height="22" fill="white" stroke="#111"/><rect x="44" y="22" width="22" height="22" fill="white" stroke="#111"/><rect x="66" y="44" width="22" height="22" fill="white" stroke="#111"/><rect x="88" y="44" width="22" height="22" fill="white" stroke="#111"/><rect x="88" y="66" width="22" height="22" fill="white" stroke="#111"/><rect x="110" y="66" width="22" height="22" fill="white" stroke="#111"/><text x="50" y="115" font-size="20">B</text></g></svg>