<svg xmlns="http://www.w3.org/2000/svg" viewBox="0 0 420 260"><rect width="420" height="260" fill="white"/><g stroke="#111" fill="white" stroke-width="2"><polygon points="70,180 160,130 300,130 210,180"/><polygon points="160,90 250,40 390,40 300,90"/><polygon points="160,90 160,130 300,130 300,90"/><polygon points="70,180 70,210 210,210 210,180"/><polygon points="210,180 300,130 390,130 300,180"/><polygon points="300,90 390,40 390,130 300,180"/></g><text x="305" y="150" font-size="18">A</text><text x="215" y="198" font-size="18">B</text><text x="110" y="206" font-size="18">C</text><text x="355" y="112" font-size="18">D</text><text x="120" y="235" font-size="14">Pieces glued end to end</text></svg>