<svg xmlns="http://www.w3.org/2000/svg" viewBox="0 0 250 250"><rect width="250" height="250" fill="white"/><g transform="translate(25,25)"><rect x="0" y="0" width="28" height="28" fill="white" stroke="#111"/><rect x="28" y="0" width="28" height="28" fill="#111" stroke="#111"/><rect x="56" y="0" width="28" height="28" fill="white" stroke="#111"/><rect x="84" y="0" width="28" height="28" fill="#111" stroke="#111"/><rect x="112" y="0" width="28" height="28" fill="white" stroke="#111"/><rect x="140" y="0" width="28" height="28" fill="#111" stroke="#111"/><rect x="168" y="0" width="28" height="28" fill="white" stroke="#111"/><rect x="0" y="28" width="28" height="28" fill="#111" stroke="#111"/><rect x="28" y="28" width="28" height="28" fill="#111" stroke="#111"/><rect x="56" y="28" width="28" height="28" fill="#111" stroke="#111"/><rect x="84" y="28" width="28" height="28" fill="#111" stroke="#111"/><rect x="112" y="28" width="28" height="28" fill="#111" stroke="#111"/><rect x="140" y="28" width="28" height="28" fill="#111" stroke="#111"/><rect x="168" y="28" width="28" height="28" fill="#111" stroke="#111"/><rect x="0" y="56" width="28" height="28" fill="white" stroke="#111"/><rect x="28" y="56" width="28" height="28" fill="#111" stroke="#111"/><rect x="56" y="56" width="28" height="28" fill="white" stroke="#111"/><rect x="84" y="56" width="28" height="28" fill="#111" stroke="#111"/><rect x="112" y="56" width="28" height="28" fill="white" stroke="#111"/><rect x="140" y="56" width="28" height="28" fill="#111" stroke="#111"/><rect x="168" y="56" width="28" height="28" fill="white" stroke="#111"/><rect x="0" y="84" width="28" height="28" fill="#111" stroke="#111"/><rect x="28" y="84" width="28" height="28" fill="#111" stroke="#111"/><rect x="56" y="84" width="28" height="28" fill="#111" stroke="#111"/><rect x="84" y="84" width="28" height="28" fill="#111" stroke="#111"/><rect x="112" y="84" width="28" height="28" fill="#111" stroke="#111"/><rect x="140" y="84" width="28" height="28" fill="#111" stroke="#111"/><rect x="168" y="84" width="28" height="28" fill="#111" stroke="#111"/><rect x="0" y="112" width="28" height="28" fill="white" stroke="#111"/><rect x="28" y="112" width="28" height="28" fill="#111" stroke="#111"/><rect x="56" y="112" width="28" height="28" fill="white" stroke="#111"/><rect x="84" y="112" width="28" height="28" fill="#111" stroke="#111"/><rect x="112" y="112" width="28" height="28" fill="white" stroke="#111"/><rect x="140" y="112" width="28" height="28" fill="#111" stroke="#111"/><rect x="168" y="112" width="28" height="28" fill="white" stroke="#111"/><rect x="0" y="140" width="28" height="28" fill="#111" stroke="#111"/><rect x="28" y="140" width="28" height="28" fill="#111" stroke="#111"/><rect x="56" y="140" width="28" height="28" fill="#111" stroke="#111"/><rect x="84" y="140" width="28" height="28" fill="#111" stroke="#111"/><rect x="112" y="140" width="28" height="28" fill="#111" stroke="#111"/><rect x="140" y="140" width="28" height="28" fill="#111" stroke="#111"/><rect x="168" y="140" width="28" height="28" fill="#111" stroke="#111"/><rect x="0" y="168" width="28" height="28" fill="white" stroke="#111"/><rect x="28" y="168" width="28" height="28" fill="#111" stroke="#111"/><rect x="56" y="168" width="28" height="28" fill="white" stroke="#111"/><rect x="84" y="168" width="28" height="28" fill="#111" stroke="#111"/><rect x="112" y="168" width="28" height="28" fill="white" stroke="#111"/><rect x="140" y="168" width="28" height="28" fill="#111" stroke="#111"/><rect x="168" y="168" width="28" height="28" fill="white" stroke="#111"/></g></svg>