<svg xmlns="http://www.w3.org/2000/svg" width="560" height="300" viewBox="0 0 560 300">
  <rect width="100%" height="100%" fill="white"/>
  <g transform="translate(60,60)" stroke="black" stroke-width="2" fill="none">
    <rect x="0" y="80" width="60" height="60"/><rect x="60" y="80" width="60" height="60"/><rect x="120" y="80" width="60" height="60"/><rect x="180" y="80" width="60" height="60"/><rect x="240" y="80" width="60" height="60"/><rect x="300" y="80" width="60" height="60"/>
    <rect x="60" y="20" width="60" height="60"/><rect x="120" y="20" width="60" height="60"/><rect x="180" y="20" width="60" height="60"/><rect x="240" y="20" width="60" height="60"/>
    <line x1="0" y1="140" x2="300" y2="40" stroke="black" stroke-width="3"/>
    <circle cx="0" cy="140" r="4" fill="black"/><circle cx="300" cy="40" r="4" fill="black"/><circle cx="300" cy="80" r="4" fill="black"/><circle cx="300" cy="20" r="4" fill="black"/>
  </g>
  <g font-size="18" font-family="serif"><text x="42" y="225">P</text><text x="372" y="104">Q</text><text x="374" y="145">Y</text><text x="372" y="85">X</text></g>
</svg>
