<svg xmlns="http://www.w3.org/2000/svg" width="420" height="480" viewBox="0 0 420 480">
  <rect width="100%" height="100%" fill="white"/>
  <g transform="translate(210,240) scale(110,-110)" stroke="black" fill="none" stroke-width="0.018">
    <line x1="-1.7" y1="0" x2="1.7" y2="0"/><line x1="0" y1="-1.7" x2="0" y2="1.7"/>
    <circle cx="0" cy="0" r="1.414"/>
    <path d="M -1 1 A 1 1 0 0 1 1 1"/>
    <path d="M -1 -1 A 1 1 0 0 0 1 -1"/>
    <line x1="-1" y1="1" x2="1" y2="1"/><line x1="-1" y1="-1" x2="1" y2="-1"/>
    <circle cx="0" cy="0" r="0.04" fill="black"/><circle cx="-1" cy="1" r="0.035" fill="black"/><circle cx="1" cy="1" r="0.035" fill="black"/><circle cx="-1" cy="-1" r="0.035" fill="black"/><circle cx="1" cy="-1" r="0.035" fill="black"/>
  </g>
  <g font-size="18" font-family="serif"><text x="80" y="120">P(-1,1)</text><text x="260" y="120">Q(1,1)</text><text x="75" y="385">R(-1,-1)</text><text x="258" y="385">S(1,-1)</text><text x="218" y="253">O</text></g>
</svg>
