<svg xmlns="http://www.w3.org/2000/svg" width="520" height="340" viewBox="0 0 520 340">
  <rect width="100%" height="100%" fill="white"/>
  <line x1="60" y1="280" x2="470" y2="280" stroke="black" stroke-width="2"/>
  <line x1="60" y1="40" x2="60" y2="280" stroke="black" stroke-width="2"/>
  <text x="235" y="325" font-size="16">Month</text><text x="14" y="160" font-size="16" transform="rotate(-90 14 160)">Price</text>
  <g stroke="#999" stroke-width="1"><line x1="60" y1="220" x2="470" y2="220"/><line x1="60" y1="160" x2="470" y2="160"/><line x1="60" y1="100" x2="470" y2="100"/><line x1="60" y1="40" x2="470" y2="40"/></g>
  <g font-size="14" text-anchor="end"><text x="52" y="285">0</text><text x="52" y="225">5</text><text x="52" y="165">10</text><text x="52" y="105">15</text><text x="52" y="45">20</text></g>
  <g fill="#9ca3af" stroke="black" stroke-width="1.5">
    <rect x="82" y="76" width="24" height="204"/><rect x="122" y="112" width="24" height="168"/><rect x="162" y="160" width="24" height="120"/><rect x="202" y="136" width="24" height="144"/><rect x="242" y="136" width="24" height="144"/><rect x="282" y="124" width="24" height="156"/><rect x="322" y="148" width="24" height="132"/><rect x="362" y="88" width="24" height="192"/><rect x="402" y="112" width="24" height="168"/><rect x="442" y="148" width="24" height="132"/>
  </g>
  <g font-size="13" text-anchor="middle"><text x="94" y="300">1</text><text x="134" y="300">2</text><text x="174" y="300">3</text><text x="214" y="300">4</text><text x="254" y="300">5</text><text x="294" y="300">6</text><text x="334" y="300">7</text><text x="374" y="300">8</text><text x="414" y="300">9</text><text x="454" y="300">10</text></g>
</svg>
