<svg xmlns="http://www.w3.org/2000/svg" width="540" height="360" viewBox="0 0 540 360" role="img" aria-label="problem-16-circle-graph-options.svg">
  <rect width="100%" height="100%" fill="white"/>
  <style>text{font-family:Arial, sans-serif;font-size:18px;fill:#111} .thin{stroke:#111;stroke-width:2;fill:none} .grid{stroke:#444;stroke-width:1.4} .shade{fill:#8a8a8a;stroke:#111;stroke-width:2} .light{fill:#f4f4f4;stroke:#111;stroke-width:2} .label{font-size:16px} .small{font-size:14px}</style>
<text x="15" y="100">(A)</text><line x1="35" y1="145" x2="160" y2="145" class="thin"/><line x1="35" y1="145" x2="35" y2="45" class="thin"/><text x="165" y="150" class="small">C</text><text x="20" y="45" class="small">A</text>
<circle cx="60" cy="135" r="4" fill="#111"/>
<circle cx="85" cy="117" r="4" fill="#111"/>
<circle cx="110" cy="93" r="4" fill="#111"/>
<circle cx="135" cy="63" r="4" fill="#111"/>
<circle cx="160" cy="25" r="4" fill="#111"/>
<text x="175" y="100">(B)</text><line x1="195" y1="145" x2="320" y2="145" class="thin"/><line x1="195" y1="145" x2="195" y2="45" class="thin"/><text x="325" y="150" class="small">C</text><text x="180" y="45" class="small">A</text>
<circle cx="220" cy="95" r="4" fill="#111"/>
<circle cx="245" cy="75" r="4" fill="#111"/>
<circle cx="270" cy="90" r="4" fill="#111"/>
<circle cx="295" cy="70" r="4" fill="#111"/>
<circle cx="320" cy="35" r="4" fill="#111"/>
<text x="335" y="100">(C)</text><line x1="355" y1="145" x2="480" y2="145" class="thin"/><line x1="355" y1="145" x2="355" y2="45" class="thin"/><text x="485" y="150" class="small">C</text><text x="340" y="45" class="small">A</text>
<circle cx="380" cy="130" r="4" fill="#111"/>
<circle cx="415" cy="95" r="4" fill="#111"/>
<circle cx="450" cy="113" r="4" fill="#111"/>
<circle cx="485" cy="75" r="4" fill="#111"/>
<circle cx="515" cy="150" r="4" fill="#111"/>
<text x="15" y="250">(D)</text><line x1="35" y1="295" x2="160" y2="295" class="thin"/><line x1="35" y1="295" x2="35" y2="195" class="thin"/><text x="165" y="300" class="small">C</text><text x="20" y="195" class="small">A</text>
<circle cx="60" cy="285" r="4" fill="#111"/>
<circle cx="85" cy="265" r="4" fill="#111"/>
<circle cx="110" cy="245" r="4" fill="#111"/>
<circle cx="135" cy="225" r="4" fill="#111"/>
<circle cx="160" cy="205" r="4" fill="#111"/>
<text x="175" y="250">(E)</text><line x1="195" y1="295" x2="320" y2="295" class="thin"/><line x1="195" y1="295" x2="195" y2="195" class="thin"/><text x="325" y="300" class="small">C</text><text x="180" y="195" class="small">A</text>
<circle cx="220" cy="265" r="4" fill="#111"/>
<circle cx="245" cy="265" r="4" fill="#111"/>
<circle cx="270" cy="265" r="4" fill="#111"/>
<circle cx="295" cy="265" r="4" fill="#111"/>
<circle cx="320" cy="265" r="4" fill="#111"/>
</svg>