<svg xmlns="http://www.w3.org/2000/svg" width="540" height="340" viewBox="0 0 540 340" role="img" aria-label="problem-11-tile-matching.svg">
  <rect width="100%" height="100%" fill="white"/>
  <style>text{font-family:Arial, sans-serif;font-size:18px;fill:#111} .thin{stroke:#111;stroke-width:2;fill:none} .grid{stroke:#444;stroke-width:1.4} .shade{fill:#8a8a8a;stroke:#111;stroke-width:2} .light{fill:#f4f4f4;stroke:#111;stroke-width:2} .label{font-size:16px} .small{font-size:14px}</style>
<text x="90" y="33" text-anchor="middle">I</text><rect x="40" y="45" width="100" height="100" class="light"/>
<text x="90" y="65" text-anchor="middle" class="small">8</text><text x="128" y="100" class="small">9</text><text x="90" y="137" text-anchor="middle" class="small">7</text><text x="50" y="100" class="small">3</text>
<text x="220" y="33" text-anchor="middle">II</text><rect x="170" y="45" width="100" height="100" class="light"/>
<text x="220" y="65" text-anchor="middle" class="small">6</text><text x="258" y="100" class="small">3</text><text x="220" y="137" text-anchor="middle" class="small">2</text><text x="180" y="100" class="small">4</text>
<text x="90" y="178" text-anchor="middle">III</text><rect x="40" y="190" width="100" height="100" class="light"/>
<text x="90" y="210" text-anchor="middle" class="small">7</text><text x="128" y="245" class="small">5</text><text x="90" y="282" text-anchor="middle" class="small">0</text><text x="50" y="245" class="small">1</text>
<text x="220" y="178" text-anchor="middle">IV</text><rect x="170" y="190" width="100" height="100" class="light"/>
<text x="220" y="210" text-anchor="middle" class="small">2</text><text x="258" y="245" class="small">1</text><text x="220" y="282" text-anchor="middle" class="small">6</text><text x="180" y="245" class="small">9</text>
<line x1="330" y1="105" x2="480" y2="105" class="thin"/>
<line x1="330" y1="180" x2="480" y2="180" class="thin"/>
<line x1="330" y1="255" x2="480" y2="255" class="thin"/>
<line x1="330" y1="105" x2="330" y2="255" class="thin"/>
<line x1="405" y1="105" x2="405" y2="255" class="thin"/>
<line x1="480" y1="105" x2="480" y2="255" class="thin"/>
<text x="367.5" y="148.5" text-anchor="middle">A</text>
<text x="442.5" y="148.5" text-anchor="middle">B</text>
<text x="367.5" y="223.5" text-anchor="middle">C</text>
<text x="442.5" y="223.5" text-anchor="middle">D</text>
</svg>