<svg xmlns="http://www.w3.org/2000/svg" width="500" height="360" viewBox="0 0 500 360" role="img" aria-label="problem-23-pinwheel-grid.svg">
  <rect width="100%" height="100%" fill="white"/>
  <style>text{font-family:Arial, sans-serif;font-size:18px;fill:#111} .thin{stroke:#111;stroke-width:2;fill:none} .grid{stroke:#444;stroke-width:1.4} .shade{fill:#8a8a8a;stroke:#111;stroke-width:2} .light{fill:#f4f4f4;stroke:#111;stroke-width:2} .label{font-size:16px} .small{font-size:14px}</style>
<line x1="90" y1="30" x2="90" y2="330" class="grid"/>
<line x1="90" y1="30" x2="390" y2="30" class="grid"/>
<line x1="150" y1="30" x2="150" y2="330" class="grid"/>
<line x1="90" y1="90" x2="390" y2="90" class="grid"/>
<line x1="210" y1="30" x2="210" y2="330" class="grid"/>
<line x1="90" y1="150" x2="390" y2="150" class="grid"/>
<line x1="270" y1="30" x2="270" y2="330" class="grid"/>
<line x1="90" y1="210" x2="390" y2="210" class="grid"/>
<line x1="330" y1="30" x2="330" y2="330" class="grid"/>
<line x1="90" y1="270" x2="390" y2="270" class="grid"/>
<line x1="390" y1="30" x2="390" y2="330" class="grid"/>
<line x1="90" y1="330" x2="390" y2="330" class="grid"/>
<polygon points="240,180 150,30 180,150" class="shade" fill-opacity="0.8"/>
<polygon points="240,180 390,90 270,120" class="shade" fill-opacity="0.8"/>
<polygon points="240,180 330,330 300,210" class="shade" fill-opacity="0.8"/>
<polygon points="240,180 90,270 210,240" class="shade" fill-opacity="0.8"/>
<polygon points="240,180 330,30 300,150" class="shade" fill-opacity="0.8"/>
<polygon points="240,180 390,270 270,240" class="shade" fill-opacity="0.8"/>
<polygon points="240,180 150,330 180,210" class="shade" fill-opacity="0.8"/>
<polygon points="240,180 90,90 210,120" class="shade" fill-opacity="0.8"/>
<circle cx="240.0" cy="180.0" r="4" fill="#111"/>
</svg>