<svg xmlns="http://www.w3.org/2000/svg" viewBox="0 0 640 430" role="img"><style>
text{font-family:Inter,Arial,sans-serif;fill:#111827}.label{font-size:18px;font-weight:700}.small{font-size:14px}.tiny{font-size:11px}.choice{font-size:14px;font-weight:600}.shape{fill:#fff;stroke:#111827;stroke-width:2.5}.thin{fill:none;stroke:#111827;stroke-width:2}.dash{fill:none;stroke:#111827;stroke-width:2;stroke-dasharray:7 6}.shade{fill:#d1d5db;stroke:#111827;stroke-width:2}.dark{fill:#111827;stroke:#111827;stroke-width:2}.bright{fill:#fff;stroke:#111827;stroke-width:2}.accent{fill:#eff6ff;stroke:#2563eb;stroke-width:2}.grid{stroke:#9ca3af;stroke-width:1}.muted{fill:#6b7280}.red{fill:#fee2e2;stroke:#dc2626;stroke-width:2}.green{fill:#dcfce7;stroke:#16a34a;stroke-width:2}.blue{fill:#dbeafe;stroke:#2563eb;stroke-width:2}
</style><text x="25" y="35" class="label">Distance vs. time</text>
<line x1="105" y1="350" x2="545" y2="350" stroke="#111827" stroke-width="3"/>
<line x1="105" y1="350" x2="105" y2="20" stroke="#111827" stroke-width="3"/>
<line x1="160" y1="350" x2="160" y2="20" class="thin"/>
<line x1="215" y1="350" x2="215" y2="20" class="thin"/>
<line x1="270" y1="350" x2="270" y2="20" class="thin"/>
<line x1="325" y1="350" x2="325" y2="20" class="thin"/>
<line x1="380" y1="350" x2="380" y2="20" class="thin"/>
<line x1="435" y1="350" x2="435" y2="20" class="thin"/>
<line x1="490" y1="350" x2="490" y2="20" class="thin"/>
<line x1="545" y1="350" x2="545" y2="20" class="thin"/>
<line x1="105" y1="295" x2="545" y2="295" class="thin"/>
<line x1="105" y1="240" x2="545" y2="240" class="thin"/>
<line x1="105" y1="185" x2="545" y2="185" class="thin"/>
<line x1="105" y1="130" x2="545" y2="130" class="thin"/>
<line x1="105" y1="75" x2="545" y2="75" class="thin"/>
<circle cx="173.75" cy="102.5" r="7" fill="#111827"/>
<text x="118.75" y="67.5" class="label">Evelyn</text>
<circle cx="242.5" cy="240.0" r="7" fill="#111827"/>
<text x="192.5" y="265.0" class="label">Briana</text>
<circle cx="338.75" cy="64.0" r="7" fill="#111827"/>
<text x="353.75" y="89.0" class="label">Carla</text>
<circle cx="413.0" cy="174.0" r="7" fill="#111827"/>
<text x="363.0" y="159.0" class="label">Debra</text>
<circle cx="479.0" cy="273.0" r="7" fill="#111827"/>
<text x="493.0" y="281.0" class="label">Angela</text>
<text x="315" y="395" text-anchor="middle" class="small">Average speed is the slope from the origin to the point.</text>
<text x="70" y="205" transform="rotate(-90 70 205)" class="small">distance</text>
<text x="300" y="385" class="small">time</text></svg>