<svg xmlns="http://www.w3.org/2000/svg" viewBox="0 0 640 430" role="img"><style>
text{font-family:Inter,Arial,sans-serif;fill:#111827}.label{font-size:18px;font-weight:700}.small{font-size:14px}.tiny{font-size:11px}.choice{font-size:14px;font-weight:600}.shape{fill:#fff;stroke:#111827;stroke-width:2.5}.thin{fill:none;stroke:#111827;stroke-width:2}.dash{fill:none;stroke:#111827;stroke-width:2;stroke-dasharray:7 6}.shade{fill:#d1d5db;stroke:#111827;stroke-width:2}.dark{fill:#111827;stroke:#111827;stroke-width:2}.bright{fill:#fff;stroke:#111827;stroke-width:2}.accent{fill:#eff6ff;stroke:#2563eb;stroke-width:2}.grid{stroke:#9ca3af;stroke-width:1}.muted{fill:#6b7280}.red{fill:#fee2e2;stroke:#dc2626;stroke-width:2}.green{fill:#dcfce7;stroke:#16a34a;stroke-width:2}.blue{fill:#dbeafe;stroke:#2563eb;stroke-width:2}
</style><text x="25" y="35" class="label">Color squares to make diagonal BD a line of symmetry</text>
<rect class="dark" x="150" y="80" width="70" height="70"/>
<rect class="bright" x="220" y="80" width="70" height="70"/>
<rect class="dark" x="290" y="80" width="70" height="70"/>
<rect class="dark" x="360" y="80" width="70" height="70"/>
<rect class="bright" x="150" y="150" width="70" height="70"/>
<rect class="bright" x="220" y="150" width="70" height="70"/>
<rect class="bright" x="290" y="150" width="70" height="70"/>
<rect class="bright" x="360" y="150" width="70" height="70"/>
<rect class="bright" x="150" y="220" width="70" height="70"/>
<rect class="bright" x="220" y="220" width="70" height="70"/>
<rect class="bright" x="290" y="220" width="70" height="70"/>
<rect class="dark" x="360" y="220" width="70" height="70"/>
<rect class="bright" x="150" y="290" width="70" height="70"/>
<rect class="dark" x="220" y="290" width="70" height="70"/>
<rect class="bright" x="290" y="290" width="70" height="70"/>
<rect class="bright" x="360" y="290" width="70" height="70"/>
<line x1="430" y1="80" x2="150" y2="360" stroke="#2563eb" stroke-width="3" stroke-dasharray="8 6"/>
<text x="122" y="68" class="label">A</text>
<text x="438" y="68" class="label">B</text>
<text x="438" y="388" class="label">C</text>
<text x="122" y="388" class="label">D</text>
<text x="95" y="390" class="small">Each black square needs a reflected partner across BD.</text></svg>