<svg xmlns="http://www.w3.org/2000/svg" width="520" height="360" viewBox="0 0 520 360">
  <rect width="100%" height="100%" fill="white"/>
  <line x1="70" y1="300" x2="455" y2="300" stroke="black" stroke-width="2"/><line x1="70" y1="40" x2="70" y2="300" stroke="black" stroke-width="2"/>
  <g stroke="#999" stroke-width="1">
    <line x1="125" y1="40" x2="125" y2="300"/><line x1="180" y1="40" x2="180" y2="300"/><line x1="235" y1="40" x2="235" y2="300"/><line x1="290" y1="40" x2="290" y2="300"/><line x1="345" y1="40" x2="345" y2="300"/><line x1="400" y1="40" x2="400" y2="300"/>
    <line x1="70" y1="263" x2="455" y2="263"/><line x1="70" y1="226" x2="455" y2="226"/><line x1="70" y1="189" x2="455" y2="189"/><line x1="70" y1="151" x2="455" y2="151"/><line x1="70" y1="114" x2="455" y2="114"/><line x1="70" y1="77" x2="455" y2="77"/><line x1="70" y1="40" x2="455" y2="40"/>
  </g>
  <polyline points="70,300 125,263 180,189 290,151 400,40" fill="none" stroke="black" stroke-width="3"/>
  <g font-size="14" text-anchor="middle"><text x="125" y="322">1</text><text x="180" y="322">2</text><text x="235" y="322">3</text><text x="290" y="322">4</text><text x="345" y="322">5</text><text x="400" y="322">6</text><text x="455" y="322">7</text></g>
  <g font-size="14" text-anchor="end"><text x="60" y="268">5</text><text x="60" y="231">10</text><text x="60" y="194">15</text><text x="60" y="156">20</text><text x="60" y="119">25</text><text x="60" y="82">30</text><text x="60" y="45">35</text></g>
  <text x="245" y="350" font-size="16">HOURS</text><text x="22" y="180" font-size="16" transform="rotate(-90 22 180)">MILES</text>
</svg>
