<svg xmlns="http://www.w3.org/2000/svg" width="560" height="350" viewBox="0 0 560 350">
  <rect width="100%" height="100%" fill="white"/>
  <line x1="70" y1="285" x2="500" y2="285" stroke="black" stroke-width="2"/><line x1="70" y1="45" x2="70" y2="285" stroke="black" stroke-width="2"/>
  <g stroke="#999" stroke-width="1"><line x1="70" y1="245" x2="500" y2="245"/><line x1="70" y1="205" x2="500" y2="205"/><line x1="70" y1="165" x2="500" y2="165"/><line x1="70" y1="125" x2="500" y2="125"/><line x1="70" y1="85" x2="500" y2="85"/><line x1="70" y1="45" x2="500" y2="45"/></g>
  <g stroke="black" stroke-width="1.4">
    <rect x="115" y="165" width="24" height="120" fill="#6b7280"/><rect x="140" y="145" width="24" height="140" fill="white"/>
    <rect x="195" y="105" width="24" height="180" fill="#6b7280"/><rect x="220" y="125" width="24" height="160" fill="white"/>
    <rect x="275" y="85" width="24" height="200" fill="#6b7280"/><rect x="300" y="45" width="24" height="240" fill="white"/>
    <rect x="355" y="125" width="24" height="160" fill="#6b7280"/><rect x="380" y="65" width="24" height="220" fill="white"/>
    <rect x="435" y="145" width="24" height="140" fill="#6b7280"/><rect x="460" y="185" width="24" height="100" fill="white"/>
  </g>
  <g font-size="14" text-anchor="middle"><text x="140" y="308">M</text><text x="220" y="308">Tu</text><text x="300" y="308">W</text><text x="380" y="308">Th</text><text x="460" y="308">F</text></g>
  <g font-size="14" text-anchor="end"><text x="62" y="290">0</text><text x="62" y="250">20</text><text x="62" y="210">40</text><text x="62" y="170">60</text><text x="62" y="130">80</text><text x="62" y="90">100</text><text x="62" y="50">120</text></g>
  <text x="16" y="175" font-size="16" transform="rotate(-90 16 175)">MINUTES</text>
  <text x="120" y="335" font-size="13">dark = Asha, white = Sasha</text>
</svg>
