<svg xmlns="http://www.w3.org/2000/svg" viewBox="0 0 640 480" role="img"><style>
text{font-family:Inter,Arial,sans-serif;fill:#111827}.label{font-size:18px;font-weight:700}.small{font-size:14px}.tiny{font-size:11px}.shape{fill:#fff;stroke:#111827;stroke-width:2.5}.thin{fill:none;stroke:#111827;stroke-width:2}.dash{fill:none;stroke:#111827;stroke-width:2;stroke-dasharray:6 5}.shade{fill:#d1d5db;stroke:#111827;stroke-width:2}.dark{fill:#111827;stroke:#111827;stroke-width:2}.bright{fill:#fff;stroke:#111827;stroke-width:2}.accent{fill:#eff6ff;stroke:#2563eb;stroke-width:2}.grid{stroke:#9ca3af;stroke-width:1}.muted{fill:#6b7280}.choice{font-size:14px;font-weight:600}.red{fill:#fee2e2;stroke:#dc2626;stroke-width:2}.green{fill:#dcfce7;stroke:#16a34a;stroke-width:2}.blue{fill:#dbeafe;stroke:#2563eb;stroke-width:2}
</style><text x="25" y="35" class="label">Rectangular route and distance graphs</text>
<rect class="shape" x="55" y="70" width="180" height="115"/>
<text x="45" y="65" class="label">J</text>
<text x="240" y="65" class="label">M</text>
<text x="45" y="205" class="label">K</text>
<text x="240" y="205" class="label">L</text>
<path d="M55 70 L55 185 L235 185 L235 70" class="red" fill="none"/>
<g transform="translate(330,65)"><text x="-28" y="115" class="choice">(A)</text><line x1="0" y1="100" x2="135" y2="100" stroke="#111827" stroke-width="2"/><line x1="0" y1="100" x2="0" y2="0" stroke="#111827" stroke-width="2"/><path d="M 0 90 L120 10" fill="none" stroke="#111827" stroke-width="3"/></g>
<g transform="translate(485,65)"><text x="-28" y="115" class="choice">(B)</text><line x1="0" y1="100" x2="135" y2="100" stroke="#111827" stroke-width="2"/><line x1="0" y1="100" x2="0" y2="0" stroke="#111827" stroke-width="2"/><path d="M 0 20 L10 20 L10 55 L20 55 L20 95 L120 95" fill="none" stroke="#111827" stroke-width="3"/></g>
<g transform="translate(330,220)"><text x="-28" y="115" class="choice">(C)</text><line x1="0" y1="100" x2="135" y2="100" stroke="#111827" stroke-width="2"/><line x1="0" y1="100" x2="0" y2="0" stroke="#111827" stroke-width="2"/><path d="M 0 100 C25 40 50 40 60 65 C75 95 95 35 120 100" fill="none" stroke="#111827" stroke-width="3"/></g>
<g transform="translate(485,220)"><text x="-28" y="115" class="choice">(D)</text><line x1="0" y1="100" x2="135" y2="100" stroke="#111827" stroke-width="2"/><line x1="0" y1="100" x2="0" y2="0" stroke="#111827" stroke-width="2"/><path d="M 0 100 L45 35 L85 55 L120 100" fill="none" stroke="#111827" stroke-width="3"/></g>
<g transform="translate(407,335)"><text x="-28" y="115" class="choice">(E)</text><line x1="0" y1="100" x2="135" y2="100" stroke="#111827" stroke-width="2"/><line x1="0" y1="100" x2="0" y2="0" stroke="#111827" stroke-width="2"/><path d="M 0 100 L35 55 L75 55 L105 15 L130 15" fill="none" stroke="#111827" stroke-width="3"/></g></svg>