<svg xmlns="http://www.w3.org/2000/svg" viewBox="0 0 640 480" role="img"><style>
text{font-family:Inter,Arial,sans-serif;fill:#111827}.label{font-size:18px;font-weight:700}.small{font-size:14px}.tiny{font-size:11px}.shape{fill:#fff;stroke:#111827;stroke-width:2.5}.thin{fill:none;stroke:#111827;stroke-width:2}.dash{fill:none;stroke:#111827;stroke-width:2;stroke-dasharray:6 5}.shade{fill:#d1d5db;stroke:#111827;stroke-width:2}.dark{fill:#111827;stroke:#111827;stroke-width:2}.bright{fill:#fff;stroke:#111827;stroke-width:2}.accent{fill:#eff6ff;stroke:#2563eb;stroke-width:2}.grid{stroke:#9ca3af;stroke-width:1}.muted{fill:#6b7280}.choice{font-size:14px;font-weight:600}.red{fill:#fee2e2;stroke:#dc2626;stroke-width:2}.green{fill:#dcfce7;stroke:#16a34a;stroke-width:2}.blue{fill:#dbeafe;stroke:#2563eb;stroke-width:2}
</style><text x="25" y="35" class="label">Geoboard quadrilateral</text>
<circle cx="70" cy="70" r="3.2" fill="#111827"/>
<circle cx="104" cy="70" r="3.2" fill="#111827"/>
<circle cx="138" cy="70" r="3.2" fill="#111827"/>
<circle cx="172" cy="70" r="3.2" fill="#111827"/>
<circle cx="206" cy="70" r="3.2" fill="#111827"/>
<circle cx="240" cy="70" r="3.2" fill="#111827"/>
<circle cx="274" cy="70" r="3.2" fill="#111827"/>
<circle cx="308" cy="70" r="3.2" fill="#111827"/>
<circle cx="342" cy="70" r="3.2" fill="#111827"/>
<circle cx="376" cy="70" r="3.2" fill="#111827"/>
<circle cx="410" cy="70" r="3.2" fill="#111827"/>
<circle cx="70" cy="104" r="3.2" fill="#111827"/>
<circle cx="104" cy="104" r="3.2" fill="#111827"/>
<circle cx="138" cy="104" r="3.2" fill="#111827"/>
<circle cx="172" cy="104" r="3.2" fill="#111827"/>
<circle cx="206" cy="104" r="3.2" fill="#111827"/>
<circle cx="240" cy="104" r="3.2" fill="#111827"/>
<circle cx="274" cy="104" r="3.2" fill="#111827"/>
<circle cx="308" cy="104" r="3.2" fill="#111827"/>
<circle cx="342" cy="104" r="3.2" fill="#111827"/>
<circle cx="376" cy="104" r="3.2" fill="#111827"/>
<circle cx="410" cy="104" r="3.2" fill="#111827"/>
<circle cx="70" cy="138" r="3.2" fill="#111827"/>
<circle cx="104" cy="138" r="3.2" fill="#111827"/>
<circle cx="138" cy="138" r="3.2" fill="#111827"/>
<circle cx="172" cy="138" r="3.2" fill="#111827"/>
<circle cx="206" cy="138" r="3.2" fill="#111827"/>
<circle cx="240" cy="138" r="3.2" fill="#111827"/>
<circle cx="274" cy="138" r="3.2" fill="#111827"/>
<circle cx="308" cy="138" r="3.2" fill="#111827"/>
<circle cx="342" cy="138" r="3.2" fill="#111827"/>
<circle cx="376" cy="138" r="3.2" fill="#111827"/>
<circle cx="410" cy="138" r="3.2" fill="#111827"/>
<circle cx="70" cy="172" r="3.2" fill="#111827"/>
<circle cx="104" cy="172" r="3.2" fill="#111827"/>
<circle cx="138" cy="172" r="3.2" fill="#111827"/>
<circle cx="172" cy="172" r="3.2" fill="#111827"/>
<circle cx="206" cy="172" r="3.2" fill="#111827"/>
<circle cx="240" cy="172" r="3.2" fill="#111827"/>
<circle cx="274" cy="172" r="3.2" fill="#111827"/>
<circle cx="308" cy="172" r="3.2" fill="#111827"/>
<circle cx="342" cy="172" r="3.2" fill="#111827"/>
<circle cx="376" cy="172" r="3.2" fill="#111827"/>
<circle cx="410" cy="172" r="3.2" fill="#111827"/>
<circle cx="70" cy="206" r="3.2" fill="#111827"/>
<circle cx="104" cy="206" r="3.2" fill="#111827"/>
<circle cx="138" cy="206" r="3.2" fill="#111827"/>
<circle cx="172" cy="206" r="3.2" fill="#111827"/>
<circle cx="206" cy="206" r="3.2" fill="#111827"/>
<circle cx="240" cy="206" r="3.2" fill="#111827"/>
<circle cx="274" cy="206" r="3.2" fill="#111827"/>
<circle cx="308" cy="206" r="3.2" fill="#111827"/>
<circle cx="342" cy="206" r="3.2" fill="#111827"/>
<circle cx="376" cy="206" r="3.2" fill="#111827"/>
<circle cx="410" cy="206" r="3.2" fill="#111827"/>
<circle cx="70" cy="240" r="3.2" fill="#111827"/>
<circle cx="104" cy="240" r="3.2" fill="#111827"/>
<circle cx="138" cy="240" r="3.2" fill="#111827"/>
<circle cx="172" cy="240" r="3.2" fill="#111827"/>
<circle cx="206" cy="240" r="3.2" fill="#111827"/>
<circle cx="240" cy="240" r="3.2" fill="#111827"/>
<circle cx="274" cy="240" r="3.2" fill="#111827"/>
<circle cx="308" cy="240" r="3.2" fill="#111827"/>
<circle cx="342" cy="240" r="3.2" fill="#111827"/>
<circle cx="376" cy="240" r="3.2" fill="#111827"/>
<circle cx="410" cy="240" r="3.2" fill="#111827"/>
<circle cx="70" cy="274" r="3.2" fill="#111827"/>
<circle cx="104" cy="274" r="3.2" fill="#111827"/>
<circle cx="138" cy="274" r="3.2" fill="#111827"/>
<circle cx="172" cy="274" r="3.2" fill="#111827"/>
<circle cx="206" cy="274" r="3.2" fill="#111827"/>
<circle cx="240" cy="274" r="3.2" fill="#111827"/>
<circle cx="274" cy="274" r="3.2" fill="#111827"/>
<circle cx="308" cy="274" r="3.2" fill="#111827"/>
<circle cx="342" cy="274" r="3.2" fill="#111827"/>
<circle cx="376" cy="274" r="3.2" fill="#111827"/>
<circle cx="410" cy="274" r="3.2" fill="#111827"/>
<circle cx="70" cy="308" r="3.2" fill="#111827"/>
<circle cx="104" cy="308" r="3.2" fill="#111827"/>
<circle cx="138" cy="308" r="3.2" fill="#111827"/>
<circle cx="172" cy="308" r="3.2" fill="#111827"/>
<circle cx="206" cy="308" r="3.2" fill="#111827"/>
<circle cx="240" cy="308" r="3.2" fill="#111827"/>
<circle cx="274" cy="308" r="3.2" fill="#111827"/>
<circle cx="308" cy="308" r="3.2" fill="#111827"/>
<circle cx="342" cy="308" r="3.2" fill="#111827"/>
<circle cx="376" cy="308" r="3.2" fill="#111827"/>
<circle cx="410" cy="308" r="3.2" fill="#111827"/>
<circle cx="70" cy="342" r="3.2" fill="#111827"/>
<circle cx="104" cy="342" r="3.2" fill="#111827"/>
<circle cx="138" cy="342" r="3.2" fill="#111827"/>
<circle cx="172" cy="342" r="3.2" fill="#111827"/>
<circle cx="206" cy="342" r="3.2" fill="#111827"/>
<circle cx="240" cy="342" r="3.2" fill="#111827"/>
<circle cx="274" cy="342" r="3.2" fill="#111827"/>
<circle cx="308" cy="342" r="3.2" fill="#111827"/>
<circle cx="342" cy="342" r="3.2" fill="#111827"/>
<circle cx="376" cy="342" r="3.2" fill="#111827"/>
<circle cx="410" cy="342" r="3.2" fill="#111827"/>
<circle cx="70" cy="376" r="3.2" fill="#111827"/>
<circle cx="104" cy="376" r="3.2" fill="#111827"/>
<circle cx="138" cy="376" r="3.2" fill="#111827"/>
<circle cx="172" cy="376" r="3.2" fill="#111827"/>
<circle cx="206" cy="376" r="3.2" fill="#111827"/>
<circle cx="240" cy="376" r="3.2" fill="#111827"/>
<circle cx="274" cy="376" r="3.2" fill="#111827"/>
<circle cx="308" cy="376" r="3.2" fill="#111827"/>
<circle cx="342" cy="376" r="3.2" fill="#111827"/>
<circle cx="376" cy="376" r="3.2" fill="#111827"/>
<circle cx="410" cy="376" r="3.2" fill="#111827"/>
<circle cx="70" cy="410" r="3.2" fill="#111827"/>
<circle cx="104" cy="410" r="3.2" fill="#111827"/>
<circle cx="138" cy="410" r="3.2" fill="#111827"/>
<circle cx="172" cy="410" r="3.2" fill="#111827"/>
<circle cx="206" cy="410" r="3.2" fill="#111827"/>
<circle cx="240" cy="410" r="3.2" fill="#111827"/>
<circle cx="274" cy="410" r="3.2" fill="#111827"/>
<circle cx="308" cy="410" r="3.2" fill="#111827"/>
<circle cx="342" cy="410" r="3.2" fill="#111827"/>
<circle cx="376" cy="410" r="3.2" fill="#111827"/>
<circle cx="410" cy="410" r="3.2" fill="#111827"/>
<polygon points="70,240 172,274 410,70 206,410" fill="#f8fafc" stroke="#111827" stroke-width="4"/>
<circle cx="70" cy="240" r="5" fill="#111827"/>
<circle cx="172" cy="274" r="5" fill="#111827"/>
<circle cx="410" cy="70" r="5" fill="#111827"/>
<circle cx="206" cy="410" r="5" fill="#111827"/>
<text x="480" y="115" class="small">I = 21 interior dots</text>
<text x="480" y="145" class="small">B = 5 boundary dots</text>
<text x="480" y="180" class="small">Area = I + B/2 − 1</text></svg>