<svg xmlns="http://www.w3.org/2000/svg" viewBox="0 0 640 440" role="img"><style>
text{font-family:Inter,Arial,sans-serif;fill:#111827}.label{font-size:18px;font-weight:700}.small{font-size:14px}.tiny{font-size:11px}.shape{fill:#fff;stroke:#111827;stroke-width:2.5}.thin{fill:none;stroke:#111827;stroke-width:2}.dash{fill:none;stroke:#111827;stroke-width:2;stroke-dasharray:6 5}.shade{fill:#d1d5db;stroke:#111827;stroke-width:2}.dark{fill:#111827;stroke:#111827;stroke-width:2}.bright{fill:#fff;stroke:#111827;stroke-width:2}.accent{fill:#eff6ff;stroke:#2563eb;stroke-width:2}.grid{stroke:#9ca3af;stroke-width:1}.muted{fill:#6b7280}.choice{font-size:14px;font-weight:600}.red{fill:#fee2e2;stroke:#dc2626;stroke-width:2}.green{fill:#dcfce7;stroke:#16a34a;stroke-width:2}.blue{fill:#dbeafe;stroke:#2563eb;stroke-width:2}
</style><text x="25" y="35" class="label">Hexagonal tile pattern</text>
<polygon class="dark" points="236.9,214.0 236.9,246.0 209.1,262.0 181.4,246.0 181.4,214.0 209.1,198.0"/>
<polygon class="dark" points="264.6,262.0 264.6,294.0 236.9,310.0 209.1,294.0 209.1,262.0 236.9,246.0"/>
<polygon class="dark" points="292.3,310.0 292.3,342.0 264.6,358.0 236.9,342.0 236.9,310.0 264.6,294.0"/>
<polygon class="dark" points="264.6,166.0 264.6,198.0 236.9,214.0 209.1,198.0 209.1,166.0 236.9,150.0"/>
<polygon class="bright" points="292.3,214.0 292.3,246.0 264.6,262.0 236.9,246.0 236.9,214.0 264.6,198.0"/>
<polygon class="bright" points="320.0,262.0 320.0,294.0 292.3,310.0 264.6,294.0 264.6,262.0 292.3,246.0"/>
<polygon class="dark" points="347.7,310.0 347.7,342.0 320.0,358.0 292.3,342.0 292.3,310.0 320.0,294.0"/>
<polygon class="dark" points="292.3,118.0 292.3,150.0 264.6,166.0 236.9,150.0 236.9,118.0 264.6,102.0"/>
<polygon class="bright" points="320.0,166.0 320.0,198.0 292.3,214.0 264.6,198.0 264.6,166.0 292.3,150.0"/>
<polygon class="dark" points="347.7,214.0 347.7,246.0 320.0,262.0 292.3,246.0 292.3,214.0 320.0,198.0"/>
<polygon class="bright" points="375.4,262.0 375.4,294.0 347.7,310.0 320.0,294.0 320.0,262.0 347.7,246.0"/>
<polygon class="dark" points="403.1,310.0 403.1,342.0 375.4,358.0 347.7,342.0 347.7,310.0 375.4,294.0"/>
<polygon class="dark" points="347.7,118.0 347.7,150.0 320.0,166.0 292.3,150.0 292.3,118.0 320.0,102.0"/>
<polygon class="bright" points="375.4,166.0 375.4,198.0 347.7,214.0 320.0,198.0 320.0,166.0 347.7,150.0"/>
<polygon class="bright" points="403.1,214.0 403.1,246.0 375.4,262.0 347.7,246.0 347.7,214.0 375.4,198.0"/>
<polygon class="dark" points="430.9,262.0 430.9,294.0 403.1,310.0 375.4,294.0 375.4,262.0 403.1,246.0"/>
<polygon class="dark" points="403.1,118.0 403.1,150.0 375.4,166.0 347.7,150.0 347.7,118.0 375.4,102.0"/>
<polygon class="dark" points="430.9,166.0 430.9,198.0 403.1,214.0 375.4,198.0 375.4,166.0 403.1,150.0"/>
<polygon class="dark" points="458.6,214.0 458.6,246.0 430.9,262.0 403.1,246.0 403.1,214.0 430.9,198.0"/>
<polygon points="181.4,214.0 181.4,246.0 153.7,262.0 126.0,246.0 126.0,214.0 153.7,198.0" fill="#f9fafb" stroke="#9ca3af" stroke-width="1.2" stroke-dasharray="4 4"/>
<polygon points="209.1,262.0 209.1,294.0 181.4,310.0 153.7,294.0 153.7,262.0 181.4,246.0" fill="#f9fafb" stroke="#9ca3af" stroke-width="1.2" stroke-dasharray="4 4"/>
<polygon points="236.9,310.0 236.9,342.0 209.1,358.0 181.4,342.0 181.4,310.0 209.1,294.0" fill="#f9fafb" stroke="#9ca3af" stroke-width="1.2" stroke-dasharray="4 4"/>
<polygon points="264.6,358.0 264.6,390.0 236.9,406.0 209.1,390.0 209.1,358.0 236.9,342.0" fill="#f9fafb" stroke="#9ca3af" stroke-width="1.2" stroke-dasharray="4 4"/>
<polygon points="209.1,166.0 209.1,198.0 181.4,214.0 153.7,198.0 153.7,166.0 181.4,150.0" fill="#f9fafb" stroke="#9ca3af" stroke-width="1.2" stroke-dasharray="4 4"/>
<polygon points="320.0,358.0 320.0,390.0 292.3,406.0 264.6,390.0 264.6,358.0 292.3,342.0" fill="#f9fafb" stroke="#9ca3af" stroke-width="1.2" stroke-dasharray="4 4"/>
<polygon points="236.9,118.0 236.9,150.0 209.1,166.0 181.4,150.0 181.4,118.0 209.1,102.0" fill="#f9fafb" stroke="#9ca3af" stroke-width="1.2" stroke-dasharray="4 4"/>
<polygon points="375.4,358.0 375.4,390.0 347.7,406.0 320.0,390.0 320.0,358.0 347.7,342.0" fill="#f9fafb" stroke="#9ca3af" stroke-width="1.2" stroke-dasharray="4 4"/>
<polygon points="264.6,70.0 264.6,102.0 236.9,118.0 209.1,102.0 209.1,70.0 236.9,54.0" fill="#f9fafb" stroke="#9ca3af" stroke-width="1.2" stroke-dasharray="4 4"/>
<polygon points="430.9,358.0 430.9,390.0 403.1,406.0 375.4,390.0 375.4,358.0 403.1,342.0" fill="#f9fafb" stroke="#9ca3af" stroke-width="1.2" stroke-dasharray="4 4"/>
<polygon points="320.0,70.0 320.0,102.0 292.3,118.0 264.6,102.0 264.6,70.0 292.3,54.0" fill="#f9fafb" stroke="#9ca3af" stroke-width="1.2" stroke-dasharray="4 4"/>
<polygon points="458.6,310.0 458.6,342.0 430.9,358.0 403.1,342.0 403.1,310.0 430.9,294.0" fill="#f9fafb" stroke="#9ca3af" stroke-width="1.2" stroke-dasharray="4 4"/>
<polygon points="375.4,70.0 375.4,102.0 347.7,118.0 320.0,102.0 320.0,70.0 347.7,54.0" fill="#f9fafb" stroke="#9ca3af" stroke-width="1.2" stroke-dasharray="4 4"/>
<polygon points="486.3,262.0 486.3,294.0 458.6,310.0 430.9,294.0 430.9,262.0 458.6,246.0" fill="#f9fafb" stroke="#9ca3af" stroke-width="1.2" stroke-dasharray="4 4"/>
<polygon points="430.9,70.0 430.9,102.0 403.1,118.0 375.4,102.0 375.4,70.0 403.1,54.0" fill="#f9fafb" stroke="#9ca3af" stroke-width="1.2" stroke-dasharray="4 4"/>
<polygon points="458.6,118.0 458.6,150.0 430.9,166.0 403.1,150.0 403.1,118.0 430.9,102.0" fill="#f9fafb" stroke="#9ca3af" stroke-width="1.2" stroke-dasharray="4 4"/>
<polygon points="486.3,166.0 486.3,198.0 458.6,214.0 430.9,198.0 430.9,166.0 458.6,150.0" fill="#f9fafb" stroke="#9ca3af" stroke-width="1.2" stroke-dasharray="4 4"/>
<polygon points="514.0,214.0 514.0,246.0 486.3,262.0 458.6,246.0 458.6,214.0 486.3,198.0" fill="#f9fafb" stroke="#9ca3af" stroke-width="1.2" stroke-dasharray="4 4"/>
<text x="30" y="395" class="small">Original: 13 dark, 6 bright. New bright border adds 18.</text></svg>