<svg xmlns="http://www.w3.org/2000/svg" viewBox="0 0 520 360" role="img" aria-label="problem-04-grid-area-animated.svg">

<style>
  .label{font-family:Inter,Arial,sans-serif;font-size:14px;fill:#111827}
  .small{font-family:Inter,Arial,sans-serif;font-size:11px;fill:#374151}
  .title{font-family:Inter,Arial,sans-serif;font-size:16px;font-weight:700;fill:#111827}
  .line{stroke:#111827;stroke-width:3;fill:none;stroke-linecap:round;stroke-linejoin:round}
  .thin{stroke:#6b7280;stroke-width:1.5;fill:none}
  .grid{stroke:#d1d5db;stroke-width:1}
  .shade{fill:#93c5fd;fill-opacity:.35;stroke:#2563eb;stroke-width:2}
  .pulse{animation:pulse 1.6s ease-in-out infinite alternate;transform-origin:center}
  .draw{stroke-dasharray:900;stroke-dashoffset:900;animation:draw 2.4s ease forwards}
  .fade{animation:fade 2s ease-in-out infinite alternate}
  .pop{animation:pop 1.5s ease-in-out infinite alternate;transform-origin:center}
  @keyframes draw{to{stroke-dashoffset:0}}
  @keyframes fade{from{opacity:.25}to{opacity:1}}
  @keyframes pulse{from{opacity:.35;stroke-width:2}to{opacity:.95;stroke-width:4}}
  @keyframes pop{from{transform:scale(.96);opacity:.65}to{transform:scale(1.04);opacity:1}}
</style>


<rect width="520" height="360" fill="white"/>
<text x="24" y="32" class="title">Count area on the 1×1 grid</text>
<g transform="translate(90,55)">
  <g>
    <line x1="0" y1="0" x2="0" y2="280" class="grid"/><line x1="40" y1="0" x2="40" y2="280" class="grid"/><line x1="80" y1="0" x2="80" y2="280" class="grid"/><line x1="120" y1="0" x2="120" y2="280" class="grid"/><line x1="160" y1="0" x2="160" y2="280" class="grid"/><line x1="200" y1="0" x2="200" y2="280" class="grid"/><line x1="240" y1="0" x2="240" y2="280" class="grid"/>
    <line x1="0" y1="0" x2="280" y2="0" class="grid"/><line x1="0" y1="40" x2="280" y2="40" class="grid"/><line x1="0" y1="80" x2="280" y2="80" class="grid"/><line x1="0" y1="120" x2="280" y2="120" class="grid"/><line x1="0" y1="160" x2="280" y2="160" class="grid"/><line x1="0" y1="200" x2="280" y2="200" class="grid"/><line x1="0" y1="240" x2="280" y2="240" class="grid"/>
  </g>
  <polygon points="120,40 160,80 200,80 240,120 200,160 200,200 160,240 120,200 80,200 40,160 80,120 80,80" fill="#fef3c7" stroke="#111827" stroke-width="4" class="draw"/>
  <rect x="80" y="80" width="120" height="120" fill="#bfdbfe" opacity="0.25" class="fade"/>
  <text x="100" y="145" class="label">3×3 = 9</text>
</g>
<text x="350" y="118" class="label">8 half-squares</text>
<text x="350" y="145" class="label">= 4 full squares</text>
<text x="350" y="188" class="title">9 + 4 = 13</text>
<text x="350" y="218" class="small">Answer C</text>

</svg>