<svg xmlns="http://www.w3.org/2000/svg" viewBox="0 0 520 360" role="img" aria-label="problem-24-cube-cross-section-animated.svg">

<style>
  .label{font-family:Inter,Arial,sans-serif;font-size:14px;fill:#111827}
  .small{font-family:Inter,Arial,sans-serif;font-size:11px;fill:#374151}
  .title{font-family:Inter,Arial,sans-serif;font-size:16px;font-weight:700;fill:#111827}
  .line{stroke:#111827;stroke-width:3;fill:none;stroke-linecap:round;stroke-linejoin:round}
  .thin{stroke:#6b7280;stroke-width:1.5;fill:none}
  .grid{stroke:#d1d5db;stroke-width:1}
  .shade{fill:#93c5fd;fill-opacity:.35;stroke:#2563eb;stroke-width:2}
  .pulse{animation:pulse 1.6s ease-in-out infinite alternate;transform-origin:center}
  .draw{stroke-dasharray:900;stroke-dashoffset:900;animation:draw 2.4s ease forwards}
  .fade{animation:fade 2s ease-in-out infinite alternate}
  .pop{animation:pop 1.5s ease-in-out infinite alternate;transform-origin:center}
  @keyframes draw{to{stroke-dashoffset:0}}
  @keyframes fade{from{opacity:.25}to{opacity:1}}
  @keyframes pulse{from{opacity:.35;stroke-width:2}to{opacity:.95;stroke-width:4}}
  @keyframes pop{from{transform:scale(.96);opacity:.65}to{transform:scale(1.04);opacity:1}}
</style>


<rect width="520" height="370" fill="white"/>
<text x="24" y="32" class="title">Cube cross-section is a rhombus</text>
<g transform="translate(130,70)">
  <polygon points="60,40 210,40 270,100 120,100" fill="#f9fafb" stroke="#111827" stroke-width="2"/>
  <polygon points="120,100 270,100 270,250 120,250" fill="#f9fafb" stroke="#111827" stroke-width="2"/>
  <polygon points="60,40 120,100 120,250 60,190" fill="#f9fafb" stroke="#111827" stroke-width="2"/>
  <line x1="210" y1="40" x2="270" y2="100" class="thin"/><line x1="210" y1="40" x2="210" y2="190" class="thin"/><line x1="210" y1="190" x2="270" y2="250" class="thin"/>
  <polygon points="165,40 270,100 165,250 60,190" class="shade pulse"/>
  <line x1="165" y1="40" x2="165" y2="250" stroke="#ef4444" stroke-width="3" stroke-dasharray="6 5"/>
  <line x1="60" y1="190" x2="270" y2="100" stroke="#ef4444" stroke-width="3" stroke-dasharray="6 5"/>
  <text x="158" y="30" class="label">E</text><text x="277" y="105" class="label">I</text><text x="158" y="270" class="label">C</text><text x="42" y="195" class="label">J</text>
</g>
<text x="56" y="330" class="label">Area = ½·s√3·s√2 = s²√6/2, so R² = 3/2.</text>

</svg>