<svg xmlns="http://www.w3.org/2000/svg" viewBox="0 0 640 420" role="img"><style>
text{font-family:Inter,Arial,sans-serif;fill:#111827}.label{font-size:18px;font-weight:600}.small{font-size:14px}.tiny{font-size:11px}.shape{fill:#fff;stroke:#111827;stroke-width:2.5}.thin{fill:none;stroke:#111827;stroke-width:2}.dash{fill:none;stroke:#111827;stroke-width:2;stroke-dasharray:6 5}.shade{fill:#d1d5db;stroke:#111827;stroke-width:2}.accent{fill:#eff6ff;stroke:#2563eb;stroke-width:2}.grid{stroke:#9ca3af;stroke-width:1}.choice{font-size:14px;font-weight:600}.muted{fill:#6b7280}.cat{fill:#f59e0b}.mouse{fill:#94a3b8}.red{fill:#fee2e2;stroke:#dc2626;stroke-width:2}
</style>
<text x="30" y="35" class="label">Sarah's friend graph</text>
<ellipse cx="260" cy="205" rx="70" ry="32" fill="#fff" stroke="#111827" stroke-width="2"/><text x="260" y="211" text-anchor="middle" class="small">Sarah</text>
<g stroke="#111827" stroke-width="2" fill="#111827">
<line x1="200" y1="190" x2="115" y2="155"/><circle cx="115" cy="155" r="5"/>
<line x1="210" y1="180" x2="170" y2="110"/><circle cx="170" cy="110" r="5"/><line x1="170" y1="110" x2="230" y2="95"/><circle cx="230" cy="95" r="5"/><line x1="230" y1="95" x2="250" y2="140"/><circle cx="250" cy="140" r="5"/>
<line x1="320" y1="190" x2="390" y2="140"/><circle cx="390" cy="140" r="5"/><line x1="390" y1="140" x2="450" y2="165"/><circle cx="450" cy="165" r="5"/><line x1="450" y1="165" x2="475" y2="235"/><circle cx="475" cy="235" r="5"/><line x1="475" y1="235" x2="350" y2="315"/><circle cx="350" cy="315" r="5"/>
<line x1="310" y1="220" x2="385" y2="225"/><circle cx="385" cy="225" r="5"/><line x1="385" y1="225" x2="400" y2="270"/><circle cx="400" cy="270" r="5"/>
<line x1="245" y1="235" x2="235" y2="315"/><circle cx="235" cy="315" r="5"/><line x1="235" y1="315" x2="310" y2="318"/><circle cx="310" cy="318" r="5"/>
<line x1="210" y1="225" x2="135" y2="280"/><circle cx="135" cy="280" r="5"/><line x1="135" y1="280" x2="160" y2="325"/><circle cx="160" cy="325" r="5"/>
<circle cx="85" cy="210" r="5"/><line x1="90" y1="210" x2="120" y2="205"/><circle cx="120" cy="205" r="5"/><line x1="120" y1="205" x2="145" y2="220"/><circle cx="145" cy="220" r="5"/>
<circle cx="80" cy="120" r="5"/><circle cx="110" cy="320" r="5"/>
</g>
<text x="320" y="385" text-anchor="middle" class="small">Invite Sarah's friends and friends of her friends.</text>
</svg>