<svg xmlns="http://www.w3.org/2000/svg" viewBox="0 0 640 390" role="img"><style>
text{font-family:Inter,Arial,sans-serif;fill:#111827}.label{font-size:18px;font-weight:600}.small{font-size:14px}.tiny{font-size:11px}.shape{fill:#fff;stroke:#111827;stroke-width:2.5}.thin{fill:none;stroke:#111827;stroke-width:2}.dash{fill:none;stroke:#111827;stroke-width:2;stroke-dasharray:6 5}.shade{fill:#d1d5db;stroke:#111827;stroke-width:2}.accent{fill:#eff6ff;stroke:#2563eb;stroke-width:2}.grid{stroke:#9ca3af;stroke-width:1}.choice{font-size:14px;font-weight:600}.muted{fill:#6b7280}.cat{fill:#f59e0b}.mouse{fill:#94a3b8}.red{fill:#fee2e2;stroke:#dc2626;stroke-width:2}
</style>
<text x="20" y="30" class="label">Ship path and distance graphs</text>
<path d="M100,170 A120,120 0 0 0 340,170" fill="none" stroke="#111827" stroke-width="2.5"/><line x1="340" y1="170" x2="235" y2="70" class="thin"/><circle cx="220" cy="160" r="4" fill="#111827"/><text x="80" y="170" class="label">A</text><text x="350" y="176" class="label">B</text><text x="225" y="60" class="label">C</text><text x="230" y="155" class="label">X</text>
<g transform="translate(20,260)">
<g><line x1="0" y1="70" x2="0" y2="0" class="thin"/><line x1="0" y1="70" x2="85" y2="70" class="thin"/><path d="M0,35 q20,-35 43,0 q-4,15 10,12 l30,-15" class="thin"/><text x="40" y="100" class="choice">(A)</text></g>
<g transform="translate(120,0)"><line x1="0" y1="70" x2="0" y2="0" class="thin"/><line x1="0" y1="70" x2="85" y2="70" class="thin"/><path d="M0,25 h35 q0,45 50,25" class="thin"/><text x="40" y="100" class="choice">(B)</text></g>
<g transform="translate(240,0)"><line x1="0" y1="70" x2="0" y2="0" class="thin"/><line x1="0" y1="70" x2="85" y2="70" class="thin"/><path d="M0,50 l45,-25 l40,25" class="thin"/><text x="40" y="100" class="choice">(C)</text></g>
<g transform="translate(360,0)"><line x1="0" y1="70" x2="0" y2="0" class="thin"/><line x1="0" y1="70" x2="85" y2="70" class="thin"/><path d="M0,45 h35 q25,-45 55,0" class="thin"/><text x="40" y="100" class="choice">(D)</text></g>
<g transform="translate(480,0)"><line x1="0" y1="70" x2="0" y2="0" class="thin"/><line x1="0" y1="70" x2="85" y2="70" class="thin"/><path d="M0,55 h35 l50,-25" class="thin"/><text x="40" y="100" class="choice">(E)</text></g>
</g>
</svg>