<svg xmlns="http://www.w3.org/2000/svg" viewBox="0 0 320 320" width="320" height="320"><rect width="100%" height="100%" fill="white"/><g fill="none" stroke="#111" stroke-width="3"><polygon points="90,85 210,85 260,130 140,130"/><polygon points="90,85 140,130 140,250 90,205"/><polygon points="210,85 260,130 260,250 210,205"/><polygon points="90,205 210,205 260,250 140,250"/><line x1="90" y1="85" x2="90" y2="205"/><line x1="210" y1="85" x2="210" y2="205"/><line x1="140" y1="130" x2="140" y2="250"/><line x1="260" y1="130" x2="260" y2="250"/></g><text x="78" y="82" font-size="22">A</text><text x="205" y="82" font-size="22">B</text><text x="130" y="275" font-size="22">C</text><text x="75" y="225" font-size="22">D</text><text x="120" y="62" font-size="22">E</text><text x="235" y="105" font-size="22">F</text><text x="264" y="270" font-size="22">G</text><text x="155" y="225" font-size="22">H</text></svg>