<svg xmlns="http://www.w3.org/2000/svg" viewBox="0 0 360 320" width="360" height="320"><rect width="100%" height="100%" fill="white"/><g stroke="#ccc" stroke-width="1"><path d="M60 40H300 M60 80H300 M60 120H300 M60 160H300 M60 200H300 M60 240H300 M60 280H300 M60 40V280 M100 40V280 M140 40V280 M180 40V280 M220 40V280 M260 40V280 M300 40V280"/></g><g stroke="#111" stroke-width="3" fill="none"><path d="M60 280H320"/><path d="M60 280V20"/><polygon points="100,160 260,240 220,120" fill="rgba(120,120,120,0.25)"/></g><circle cx="100" cy="160" r="5"/><circle cx="260" cy="240" r="5"/><circle cx="220" cy="120" r="5"/><text x="84" y="158" font-size="22">A</text><text x="268" y="260" font-size="22">B</text><text x="222" y="112" font-size="22">C</text><text x="325" y="292" font-size="22">x</text><text x="42" y="25" font-size="22">y</text></svg>