<svg xmlns="http://www.w3.org/2000/svg" viewBox="0 0 380 360" width="380" height="360"><rect width="100%" height="100%" fill="white"/><g fill="none" stroke="#111" stroke-width="3"><polygon points="170,75 220,75 245,140 215,225 155,225 125,140"/><rect x="170" y="25" width="50" height="50"/><polygon points="220,25 270,55 220,75"/><rect x="70" y="205" width="60" height="60" transform="rotate(-25 100 235)"/><line x1="245" y1="140" x2="270" y2="55" stroke-dasharray="8 6"/></g><text x="188" y="60" font-size="24">18</text><text x="85" y="245" font-size="24">32</text><text x="155" y="78" font-size="18">A</text><text x="225" y="78" font-size="18">B</text><text x="248" y="145" font-size="18">C</text><text x="214" y="245" font-size="18">D</text><text x="145" y="245" font-size="18">E</text><text x="108" y="145" font-size="18">F</text><text x="270" y="57" font-size="18">K</text><text x="208" y="20" font-size="18">J</text><text x="160" y="20" font-size="18">I</text><text x="58" y="230" font-size="18">G</text><text x="100" y="302" font-size="18">H</text></svg>