<svg xmlns="http://www.w3.org/2000/svg" viewBox="0 0 320 320" width="320" height="320"><rect width="100%" height="100%" fill="white"/><polygon points="160,35 248,72 285,160 248,248 160,285 72,248 35,160 72,72" fill="none" stroke="#111" stroke-width="4"/><polygon points="160,35 116,54 72,72 35,160 72,248 160,160 204,54" fill="#b9b9b9" stroke="none" opacity="0.9"/><polyline points="72,248 160,160 204,54" fill="none" stroke="#111" stroke-width="4"/><circle cx="160" cy="160" r="5" fill="#111"/><circle cx="204" cy="54" r="5" fill="#111"/><text x="250" y="70" font-size="22">A</text><text x="156" y="27" font-size="22">B</text><text x="55" y="70" font-size="22">C</text><text x="12" y="166" font-size="22">D</text><text x="60" y="270" font-size="22">E</text><text x="156" y="310" font-size="22">F</text><text x="255" y="270" font-size="22">G</text><text x="292" y="166" font-size="22">H</text><text x="212" y="48" font-size="22">X</text><text x="170" y="160" font-size="22">O</text></svg>