<svg xmlns="http://www.w3.org/2000/svg" viewBox="0 0 360 360" width="360" height="360" role="img" aria-label="Right angled polygon with side lengths and unknown X">
  <rect width="100%" height="100%" fill="white"/>
  <path d="M135 305 H205 V185 H245 V160 H275 V105 H205 V75 H180 V45 H125 V75 H95 V105 H25 V130 H70 V185 H95 V210 H125 V235 H135 Z" fill="#f8fafc" stroke="#111827" stroke-width="4"/>
  <style>text{font-family:Inter,Arial,sans-serif;font-size:18px;fill:#111827}.x{font-size:24px;font-weight:700;fill:#2563eb}.small{font-size:16px}</style>
  <text x="145" y="37">2</text><text x="113" y="70">1</text><text x="88" y="98">1</text><text x="55" y="98">4</text><text x="18" y="123">1</text><text x="55" y="154">2</text><text x="80" y="182">2</text><text x="108" y="208">2</text>
  <text class="x" x="103" y="260">X</text>
  <text x="215" y="70">1</text><text x="245" y="98">3</text><text x="283" y="135">2</text><text x="236" y="157">2</text><text x="214" y="184">1</text><text x="210" y="210">1</text><text x="220" y="250">6</text>
  <text x="156" y="340" class="small">Match total vertical lengths on left and right sides.</text>
</svg>