<svg xmlns="http://www.w3.org/2000/svg" viewBox="0 0 360 360" role="img" aria-label="2017 AMC 8 problem 11 animated diagonal tiles of a square grid">

<style>
  svg{font-family:Arial,Helvetica,sans-serif} .line{stroke:#111;stroke-width:3;fill:none;stroke-linecap:round;stroke-linejoin:round}.thin{stroke:#111;stroke-width:2;fill:none}.label{font-size:18px;fill:#111}.small{font-size:14px;fill:#111}.shade{fill:#93a8c9;opacity:.45}.accent{stroke:#f59e0b;stroke-width:5;fill:none;stroke-linecap:round;stroke-linejoin:round}.pulse{animation:pulse 1.8s ease-in-out infinite}.draw{stroke-dasharray:700;stroke-dashoffset:700;animation:draw 2.5s ease forwards}.fade{opacity:0;animation:fade 1s ease forwards}.f2{animation-delay:.8s}.f3{animation-delay:1.6s}.f4{animation-delay:2.4s}@keyframes draw{to{stroke-dashoffset:0}}@keyframes fade{to{opacity:1}}@keyframes pulse{0%,100%{opacity:.25}50%{opacity:.85}}
</style>
<rect width="360" height="360" fill="white"/><g transform="translate(58 40)">
<rect x="0" y="0" width="240" height="240" fill="#fff" stroke="#111" stroke-width="3"/>
<line x1="12.63" y1="0" x2="12.63" y2="240" class="thin" opacity=".25"/><line x1="0" y1="12.63" x2="240" y2="12.63" class="thin" opacity=".25"/><line x1="25.26" y1="0" x2="25.26" y2="240" class="thin" opacity=".25"/><line x1="0" y1="25.26" x2="240" y2="25.26" class="thin" opacity=".25"/><line x1="37.89" y1="0" x2="37.89" y2="240" class="thin" opacity=".25"/><line x1="0" y1="37.89" x2="240" y2="37.89" class="thin" opacity=".25"/><line x1="50.53" y1="0" x2="50.53" y2="240" class="thin" opacity=".25"/><line x1="0" y1="50.53" x2="240" y2="50.53" class="thin" opacity=".25"/><line x1="63.16" y1="0" x2="63.16" y2="240" class="thin" opacity=".25"/><line x1="0" y1="63.16" x2="240" y2="63.16" class="thin" opacity=".25"/><line x1="75.79" y1="0" x2="75.79" y2="240" class="thin" opacity=".25"/><line x1="0" y1="75.79" x2="240" y2="75.79" class="thin" opacity=".25"/><line x1="88.42" y1="0" x2="88.42" y2="240" class="thin" opacity=".25"/><line x1="0" y1="88.42" x2="240" y2="88.42" class="thin" opacity=".25"/><line x1="101.05" y1="0" x2="101.05" y2="240" class="thin" opacity=".25"/><line x1="0" y1="101.05" x2="240" y2="101.05" class="thin" opacity=".25"/><line x1="113.68" y1="0" x2="113.68" y2="240" class="thin" opacity=".25"/><line x1="0" y1="113.68" x2="240" y2="113.68" class="thin" opacity=".25"/><line x1="126.32" y1="0" x2="126.32" y2="240" class="thin" opacity=".25"/><line x1="0" y1="126.32" x2="240" y2="126.32" class="thin" opacity=".25"/><line x1="138.95" y1="0" x2="138.95" y2="240" class="thin" opacity=".25"/><line x1="0" y1="138.95" x2="240" y2="138.95" class="thin" opacity=".25"/><line x1="151.58" y1="0" x2="151.58" y2="240" class="thin" opacity=".25"/><line x1="0" y1="151.58" x2="240" y2="151.58" class="thin" opacity=".25"/><line x1="164.21" y1="0" x2="164.21" y2="240" class="thin" opacity=".25"/><line x1="0" y1="164.21" x2="240" y2="164.21" class="thin" opacity=".25"/><line x1="176.84" y1="0" x2="176.84" y2="240" class="thin" opacity=".25"/><line x1="0" y1="176.84" x2="240" y2="176.84" class="thin" opacity=".25"/><line x1="189.47" y1="0" x2="189.47" y2="240" class="thin" opacity=".25"/><line x1="0" y1="189.47" x2="240" y2="189.47" class="thin" opacity=".25"/><line x1="202.11" y1="0" x2="202.11" y2="240" class="thin" opacity=".25"/><line x1="0" y1="202.11" x2="240" y2="202.11" class="thin" opacity=".25"/><line x1="214.74" y1="0" x2="214.74" y2="240" class="thin" opacity=".25"/><line x1="0" y1="214.74" x2="240" y2="214.74" class="thin" opacity=".25"/><line x1="227.37" y1="0" x2="227.37" y2="240" class="thin" opacity=".25"/><line x1="0" y1="227.37" x2="240" y2="227.37" class="thin" opacity=".25"/>
<line x1="0" y1="0" x2="240" y2="240" class="line"/><line x1="240" y1="0" x2="0" y2="240" class="line"/></g></svg>
