<svg xmlns="http://www.w3.org/2000/svg" viewBox="0 0 680 240" role="img" aria-label="Spinners P Q and R with number regions">
  <rect width="680" height="240" fill="white"/>
  <style>.line{stroke:black;stroke-width:3;fill:none}.num{font:32px serif;text-anchor:middle}.label{font:34px serif}</style>
  <g transform="translate(110,115)">
    <text class="label" x="-90" y="-80">P</text><circle class="line" r="72"/>
    <line class="line" x1="0" y1="0" x2="0" y2="-72"/><line class="line" x1="0" y1="0" x2="62" y2="36"/><line class="line" x1="0" y1="0" x2="-62" y2="36"/>
    <text class="num" x="-35" y="-20">1</text><text class="num" x="37" y="-20">2</text><text class="num" x="0" y="48">3</text>
  </g>
  <g transform="translate(340,115)">
    <text class="label" x="-90" y="-80">Q</text><circle class="line" r="72"/>
    <line class="line" x1="0" y1="-72" x2="0" y2="72"/><line class="line" x1="-72" y1="0" x2="72" y2="0"/>
    <text class="num" x="-35" y="-25">2</text><text class="num" x="35" y="-25">4</text><text class="num" x="-35" y="45">8</text><text class="num" x="35" y="45">6</text>
  </g>
  <g transform="translate(570,115)">
    <text class="label" x="-90" y="-80">R</text><circle class="line" r="72"/>
    <line class="line" x1="0" y1="0" x2="0" y2="-72"/><line class="line" x1="0" y1="0" x2="62" y2="-36"/><line class="line" x1="0" y1="0" x2="62" y2="36"/><line class="line" x1="0" y1="0" x2="0" y2="72"/><line class="line" x1="0" y1="0" x2="-62" y2="36"/><line class="line" x1="0" y1="0" x2="-62" y2="-36"/>
    <text class="num" x="-30" y="-40">1</text><text class="num" x="30" y="-40">3</text><text class="num" x="45" y="5">5</text><text class="num" x="30" y="47">7</text><text class="num" x="-30" y="47">9</text><text class="num" x="-46" y="5">11</text>
  </g>
</svg>
