<svg xmlns="http://www.w3.org/2000/svg" viewBox="0 0 430 420" role="img" aria-label="Number pyramid where adjacent lower cells are added to form cells above">
  <rect width="430" height="420" fill="white"/>
  <style>.box{fill:white;stroke:black;stroke-width:3}.arr{stroke:black;stroke-width:3;marker-end:url(#arrow)}.txt{font:34px serif;text-anchor:middle}</style>
  <defs><marker id="arrow" markerWidth="10" markerHeight="10" refX="7" refY="3" orient="auto"><path d="M0,0 L0,6 L8,3 z" fill="black"/></marker></defs>
  <rect class="box" x="185" y="20" width="60" height="70"/>
  <rect class="box" x="100" y="165" width="60" height="70"/><rect class="box" x="270" y="165" width="60" height="70"/>
  <rect class="box" x="20" y="330" width="60" height="70"/><rect class="box" x="185" y="330" width="60" height="70"/><rect class="box" x="350" y="330" width="60" height="70"/>
  <line class="arr" x1="130" y1="165" x2="190" y2="95"/><line class="arr" x1="300" y1="165" x2="240" y2="95"/>
  <line class="arr" x1="50" y1="330" x2="112" y2="238"/><line class="arr" x1="215" y1="330" x2="148" y2="238"/>
  <line class="arr" x1="215" y1="330" x2="282" y2="238"/><line class="arr" x1="380" y1="330" x2="318" y2="238"/>
  <text class="txt" x="215" y="148">+</text><text class="txt" x="135" y="305">+</text><text class="txt" x="295" y="305">+</text>
</svg>
