<svg xmlns="http://www.w3.org/2000/svg" viewBox="0 0 780 115" role="img" aria-label="Who Wants To Be A Millionaire question value table">
  <rect width="100%" height="100%" fill="white"/>
  <g font-family="Georgia, serif" font-size="18" fill="#111827">
    <text x="10" y="35">Question</text>
    <text x="100" y="35" text-anchor="middle">1</text><text x="143" y="35" text-anchor="middle">2</text><text x="186" y="35" text-anchor="middle">3</text><text x="229" y="35" text-anchor="middle">4</text><text x="272" y="35" text-anchor="middle">5</text><text x="315" y="35" text-anchor="middle">6</text><text x="358" y="35" text-anchor="middle">7</text><text x="401" y="35" text-anchor="middle">8</text><text x="444" y="35" text-anchor="middle">9</text><text x="487" y="35" text-anchor="middle">10</text><text x="530" y="35" text-anchor="middle">11</text><text x="573" y="35" text-anchor="middle">12</text><text x="616" y="35" text-anchor="middle">13</text><text x="659" y="35" text-anchor="middle">14</text><text x="702" y="35" text-anchor="middle">15</text>
    <text x="10" y="72">Value</text>
    <text x="100" y="72" text-anchor="middle">100</text><text x="143" y="72" text-anchor="middle">200</text><text x="186" y="72" text-anchor="middle">300</text><text x="229" y="72" text-anchor="middle">500</text><text x="272" y="72" text-anchor="middle">1K</text><text x="315" y="72" text-anchor="middle">2K</text><text x="358" y="72" text-anchor="middle">4K</text><text x="401" y="72" text-anchor="middle">8K</text><text x="444" y="72" text-anchor="middle">16K</text><text x="487" y="72" text-anchor="middle">32K</text><text x="530" y="72" text-anchor="middle">64K</text><text x="573" y="72" text-anchor="middle">125K</text><text x="616" y="72" text-anchor="middle">250K</text><text x="659" y="72" text-anchor="middle">500K</text><text x="702" y="72" text-anchor="middle">1000K</text>
  </g>
  <rect x="128" y="15" width="86" height="72" fill="#dbeafe" fill-opacity="0.7" stroke="#2563eb" stroke-width="2" rx="8"/>
  <text x="171" y="105" text-anchor="middle" font-family="system-ui, sans-serif" font-size="14" fill="#1d4ed8">smallest % increase</text>
</svg>