<svg xmlns="http://www.w3.org/2000/svg" viewBox="0 0 520 310" role="img" aria-label="Five speed-time graph choices">
<rect width="100%" height="100%" fill="white"/>
<g transform="translate(20 15)"><g transform="translate(0 0)">
      <text x="0" y="15" font-size="14" fill="#111">(A)</text>
      <line x1="22" y1="20" x2="22" y2="105" stroke="#111" stroke-width="1.5"/>
      <line x1="22" y1="105" x2="112" y2="105" stroke="#111" stroke-width="1.5"/>
      <text x="8" y="50" font-size="12">s</text><text x="8" y="63" font-size="12">p</text><text x="8" y="76" font-size="12">e</text><text x="8" y="89" font-size="12">d</text>
      <text x="60" y="119" font-size="12">time</text>
      <line x1="22" y1="70" x2="70" y2="70" stroke="#111" stroke-width="1.6" stroke-dasharray="5 4"/>
      <text x="73" y="74" font-size="13">M</text>
      <line x1="22" y1="30" x2="70" y2="30" stroke="#111" stroke-width="2.2"/>
      <text x="74" y="34" font-size="13">N</text>
    </g></g>
<g transform="translate(180 15)"><g transform="translate(0 0)">
      <text x="0" y="15" font-size="14" fill="#111">(B)</text>
      <line x1="22" y1="20" x2="22" y2="105" stroke="#111" stroke-width="1.5"/>
      <line x1="22" y1="105" x2="112" y2="105" stroke="#111" stroke-width="1.5"/>
      <text x="8" y="50" font-size="12">s</text><text x="8" y="63" font-size="12">p</text><text x="8" y="76" font-size="12">e</text><text x="8" y="89" font-size="12">d</text>
      <text x="60" y="119" font-size="12">time</text>
      <line x1="22" y1="70" x2="70" y2="70" stroke="#111" stroke-width="1.6" stroke-dasharray="5 4"/>
      <text x="73" y="74" font-size="13">M</text>
      <line x1="22" y1="30" x2="105" y2="30" stroke="#111" stroke-width="2.2"/>
      <text x="109" y="34" font-size="13">N</text>
    </g></g>
<g transform="translate(340 15)"><g transform="translate(0 0)">
      <text x="0" y="15" font-size="14" fill="#111">(C)</text>
      <line x1="22" y1="20" x2="22" y2="105" stroke="#111" stroke-width="1.5"/>
      <line x1="22" y1="105" x2="112" y2="105" stroke="#111" stroke-width="1.5"/>
      <text x="8" y="50" font-size="12">s</text><text x="8" y="63" font-size="12">p</text><text x="8" y="76" font-size="12">e</text><text x="8" y="89" font-size="12">d</text>
      <text x="60" y="119" font-size="12">time</text>
      <line x1="22" y1="70" x2="70" y2="70" stroke="#111" stroke-width="1.6" stroke-dasharray="5 4"/>
      <text x="73" y="74" font-size="13">M</text>
      <line x1="22" y1="90" x2="70" y2="90" stroke="#111" stroke-width="2.2"/>
      <text x="74" y="94" font-size="13">N</text>
    </g></g>
<g transform="translate(20 160)"><g transform="translate(0 0)">
      <text x="0" y="15" font-size="14" fill="#111">(D)</text>
      <line x1="22" y1="20" x2="22" y2="105" stroke="#111" stroke-width="1.5"/>
      <line x1="22" y1="105" x2="112" y2="105" stroke="#111" stroke-width="1.5"/>
      <text x="8" y="50" font-size="12">s</text><text x="8" y="63" font-size="12">p</text><text x="8" y="76" font-size="12">e</text><text x="8" y="89" font-size="12">d</text>
      <text x="60" y="119" font-size="12">time</text>
      <line x1="22" y1="70" x2="70" y2="70" stroke="#111" stroke-width="1.6" stroke-dasharray="5 4"/>
      <text x="73" y="74" font-size="13">M</text>
      <line x1="22" y1="30" x2="44" y2="30" stroke="#111" stroke-width="2.2"/>
      <text x="48" y="34" font-size="13">N</text>
    </g></g>
<g transform="translate(180 160)"><g transform="translate(0 0)">
      <text x="0" y="15" font-size="14" fill="#111">(E)</text>
      <line x1="22" y1="20" x2="22" y2="105" stroke="#111" stroke-width="1.5"/>
      <line x1="22" y1="105" x2="112" y2="105" stroke="#111" stroke-width="1.5"/>
      <text x="8" y="50" font-size="12">s</text><text x="8" y="63" font-size="12">p</text><text x="8" y="76" font-size="12">e</text><text x="8" y="89" font-size="12">d</text>
      <text x="60" y="119" font-size="12">time</text>
      <line x1="22" y1="70" x2="70" y2="70" stroke="#111" stroke-width="1.6" stroke-dasharray="5 4"/>
      <text x="73" y="74" font-size="13">M</text>
      <line x1="22" y1="90" x2="105" y2="90" stroke="#111" stroke-width="2.2"/>
      <text x="109" y="94" font-size="13">N</text>
    </g></g>
<rect x="17" y="157" width="130" height="135" fill="none" stroke="#2563eb" stroke-width="3" rx="8" opacity="0.85"><animate attributeName="opacity" values="0.15;0.85;0.15;0.85" dur="1.4s" begin="0.5s" fill="freeze"/></rect>
</svg>