<svg xmlns="http://www.w3.org/2000/svg" viewBox="0 0 360 320" role="img" aria-label="Coordinate grid with quadrilateral ABCD">
  <rect width="100%" height="100%" fill="white"/>
  <g transform="translate(180 150) scale(1 -1)">
    <g stroke="#94a3b8" stroke-width="1">
      <line x1="-150" y1="0" x2="150" y2="0"/>
      <line x1="0" y1="-120" x2="0" y2="120"/>
    </g>
    <g fill="#111">
      <circle cx="-120" cy="-90" r="4"/>
      <circle cx="-120" cy="-60" r="4"/>
      <circle cx="-120" cy="-30" r="4"/>
      <circle cx="-120" cy="0" r="4"/>
      <circle cx="-120" cy="30" r="4"/>
      <circle cx="-120" cy="60" r="4"/>
      <circle cx="-120" cy="90" r="4"/>
      <circle cx="-90" cy="-90" r="4"/>
      <circle cx="-90" cy="-60" r="4"/>
      <circle cx="-90" cy="-30" r="4"/>
      <circle cx="-90" cy="0" r="4"/>
      <circle cx="-90" cy="30" r="4"/>
      <circle cx="-90" cy="60" r="4"/>
      <circle cx="-90" cy="90" r="4"/>
      <circle cx="-60" cy="-90" r="4"/>
      <circle cx="-60" cy="-60" r="4"/>
      <circle cx="-60" cy="-30" r="4"/>
      <circle cx="-60" cy="0" r="4"/>
      <circle cx="-60" cy="30" r="4"/>
      <circle cx="-60" cy="60" r="4"/>
      <circle cx="-60" cy="90" r="4"/>
      <circle cx="-30" cy="-90" r="4"/>
      <circle cx="-30" cy="-60" r="4"/>
      <circle cx="-30" cy="-30" r="4"/>
      <circle cx="-30" cy="0" r="4"/>
      <circle cx="-30" cy="30" r="4"/>
      <circle cx="-30" cy="60" r="4"/>
      <circle cx="-30" cy="90" r="4"/>
      <circle cx="0" cy="-90" r="4"/>
      <circle cx="0" cy="-60" r="4"/>
      <circle cx="0" cy="-30" r="4"/>
      <circle cx="0" cy="0" r="4"/>
      <circle cx="0" cy="30" r="4"/>
      <circle cx="0" cy="60" r="4"/>
      <circle cx="0" cy="90" r="4"/>
      <circle cx="30" cy="-90" r="4"/>
      <circle cx="30" cy="-60" r="4"/>
      <circle cx="30" cy="-30" r="4"/>
      <circle cx="30" cy="0" r="4"/>
      <circle cx="30" cy="30" r="4"/>
      <circle cx="30" cy="60" r="4"/>
      <circle cx="30" cy="90" r="4"/>
      <circle cx="60" cy="-90" r="4"/>
      <circle cx="60" cy="-60" r="4"/>
      <circle cx="60" cy="-30" r="4"/>
      <circle cx="60" cy="0" r="4"/>
      <circle cx="60" cy="30" r="4"/>
      <circle cx="60" cy="60" r="4"/>
      <circle cx="60" cy="90" r="4"/>
      <circle cx="90" cy="-90" r="4"/>
      <circle cx="90" cy="-60" r="4"/>
      <circle cx="90" cy="-30" r="4"/>
      <circle cx="90" cy="0" r="4"/>
      <circle cx="90" cy="30" r="4"/>
      <circle cx="90" cy="60" r="4"/>
      <circle cx="90" cy="90" r="4"/>
      <circle cx="120" cy="-90" r="4"/>
      <circle cx="120" cy="-60" r="4"/>
      <circle cx="120" cy="-30" r="4"/>
      <circle cx="120" cy="0" r="4"/>
      <circle cx="120" cy="30" r="4"/>
      <circle cx="120" cy="60" r="4"/>
      <circle cx="120" cy="90" r="4"/>
    </g>
    <polygon points="90,60 90,-60 -90,-60 -90,0" fill="#dbeafe" fill-opacity="0.65" stroke="#111827" stroke-width="3"/>
    <line x1="90" y1="60" x2="-90" y2="0" stroke="#111827" stroke-width="3"/>
  </g>
  <g font-family="system-ui, sans-serif" font-size="18" fill="#0f172a" font-weight="600">
    <text x="277" y="83">A(3,2)</text>
    <text x="278" y="216">B(3,-2)</text>
    <text x="38" y="216">C(-3,-2)</text>
    <text x="38" y="154">D(-3,0)</text>
  </g>
  <text x="118" y="288" font-family="system-ui, sans-serif" font-size="16" fill="#475569">Parallel sides: AB = 4, CD = 2; distance between them = 6</text>
</svg>