<svg xmlns="http://www.w3.org/2000/svg" viewBox="0 0 288 344" role="img" aria-label="Kite with diagonal bracing">
  <rect width="100%" height="100%" fill="white"/>
  
  <circle cx="36" cy="36" r="4.2" fill="#111"/><circle cx="72" cy="36" r="4.2" fill="#111"/><circle cx="108" cy="36" r="4.2" fill="#111"/><circle cx="144" cy="36" r="4.2" fill="#111"/><circle cx="180" cy="36" r="4.2" fill="#111"/><circle cx="216" cy="36" r="4.2" fill="#111"/><circle cx="252" cy="36" r="4.2" fill="#111"/><circle cx="36" cy="72" r="4.2" fill="#111"/><circle cx="72" cy="72" r="4.2" fill="#111"/><circle cx="108" cy="72" r="4.2" fill="#111"/><circle cx="144" cy="72" r="4.2" fill="#111"/><circle cx="180" cy="72" r="4.2" fill="#111"/><circle cx="216" cy="72" r="4.2" fill="#111"/><circle cx="252" cy="72" r="4.2" fill="#111"/><circle cx="36" cy="108" r="4.2" fill="#111"/><circle cx="72" cy="108" r="4.2" fill="#111"/><circle cx="108" cy="108" r="4.2" fill="#111"/><circle cx="144" cy="108" r="4.2" fill="#111"/><circle cx="180" cy="108" r="4.2" fill="#111"/><circle cx="216" cy="108" r="4.2" fill="#111"/><circle cx="252" cy="108" r="4.2" fill="#111"/><circle cx="36" cy="144" r="4.2" fill="#111"/><circle cx="72" cy="144" r="4.2" fill="#111"/><circle cx="108" cy="144" r="4.2" fill="#111"/><circle cx="144" cy="144" r="4.2" fill="#111"/><circle cx="180" cy="144" r="4.2" fill="#111"/><circle cx="216" cy="144" r="4.2" fill="#111"/><circle cx="252" cy="144" r="4.2" fill="#111"/><circle cx="36" cy="180" r="4.2" fill="#111"/><circle cx="72" cy="180" r="4.2" fill="#111"/><circle cx="108" cy="180" r="4.2" fill="#111"/><circle cx="144" cy="180" r="4.2" fill="#111"/><circle cx="180" cy="180" r="4.2" fill="#111"/><circle cx="216" cy="180" r="4.2" fill="#111"/><circle cx="252" cy="180" r="4.2" fill="#111"/><circle cx="36" cy="216" r="4.2" fill="#111"/><circle cx="72" cy="216" r="4.2" fill="#111"/><circle cx="108" cy="216" r="4.2" fill="#111"/><circle cx="144" cy="216" r="4.2" fill="#111"/><circle cx="180" cy="216" r="4.2" fill="#111"/><circle cx="216" cy="216" r="4.2" fill="#111"/><circle cx="252" cy="216" r="4.2" fill="#111"/><circle cx="36" cy="252" r="4.2" fill="#111"/><circle cx="72" cy="252" r="4.2" fill="#111"/><circle cx="108" cy="252" r="4.2" fill="#111"/><circle cx="144" cy="252" r="4.2" fill="#111"/><circle cx="180" cy="252" r="4.2" fill="#111"/><circle cx="216" cy="252" r="4.2" fill="#111"/><circle cx="252" cy="252" r="4.2" fill="#111"/><circle cx="36" cy="288" r="4.2" fill="#111"/><circle cx="72" cy="288" r="4.2" fill="#111"/><circle cx="108" cy="288" r="4.2" fill="#111"/><circle cx="144" cy="288" r="4.2" fill="#111"/><circle cx="180" cy="288" r="4.2" fill="#111"/><circle cx="216" cy="288" r="4.2" fill="#111"/><circle cx="252" cy="288" r="4.2" fill="#111"/>
  <polygon points="144,36 252,108 144,288 36,108" fill="none" stroke="#111827" stroke-width="3" stroke-linejoin="round"/>
  <line x1="144" y1="36" x2="144" y2="288" stroke="#2563eb" stroke-width="3" stroke-dasharray="0 999"><animate attributeName="stroke-dasharray" from="0 999" to="260 0" dur="1.1s" fill="freeze"/></line><line x1="36" y1="108" x2="252" y2="108" stroke="#2563eb" stroke-width="3" stroke-dasharray="0 999"><animate attributeName="stroke-dasharray" from="0 999" to="260 0" dur="1.1s" begin="0.4s" fill="freeze"/></line>
  <text x="152" y="162.0" font-size="14" fill="#1d4ed8">7 → 21</text><text x="111.60000000000001" y="98" font-size="14" fill="#1d4ed8">6 → 18</text>
</svg>