<svg xmlns="http://www.w3.org/2000/svg" viewBox="0 0 288 344" role="img" aria-label="Small kite drawn on a one-inch dot grid">
  <rect width="100%" height="100%" fill="white"/>
  
  <circle cx="36" cy="36" r="4.2" fill="#111"/><circle cx="72" cy="36" r="4.2" fill="#111"/><circle cx="108" cy="36" r="4.2" fill="#111"/><circle cx="144" cy="36" r="4.2" fill="#111"/><circle cx="180" cy="36" r="4.2" fill="#111"/><circle cx="216" cy="36" r="4.2" fill="#111"/><circle cx="252" cy="36" r="4.2" fill="#111"/><circle cx="36" cy="72" r="4.2" fill="#111"/><circle cx="72" cy="72" r="4.2" fill="#111"/><circle cx="108" cy="72" r="4.2" fill="#111"/><circle cx="144" cy="72" r="4.2" fill="#111"/><circle cx="180" cy="72" r="4.2" fill="#111"/><circle cx="216" cy="72" r="4.2" fill="#111"/><circle cx="252" cy="72" r="4.2" fill="#111"/><circle cx="36" cy="108" r="4.2" fill="#111"/><circle cx="72" cy="108" r="4.2" fill="#111"/><circle cx="108" cy="108" r="4.2" fill="#111"/><circle cx="144" cy="108" r="4.2" fill="#111"/><circle cx="180" cy="108" r="4.2" fill="#111"/><circle cx="216" cy="108" r="4.2" fill="#111"/><circle cx="252" cy="108" r="4.2" fill="#111"/><circle cx="36" cy="144" r="4.2" fill="#111"/><circle cx="72" cy="144" r="4.2" fill="#111"/><circle cx="108" cy="144" r="4.2" fill="#111"/><circle cx="144" cy="144" r="4.2" fill="#111"/><circle cx="180" cy="144" r="4.2" fill="#111"/><circle cx="216" cy="144" r="4.2" fill="#111"/><circle cx="252" cy="144" r="4.2" fill="#111"/><circle cx="36" cy="180" r="4.2" fill="#111"/><circle cx="72" cy="180" r="4.2" fill="#111"/><circle cx="108" cy="180" r="4.2" fill="#111"/><circle cx="144" cy="180" r="4.2" fill="#111"/><circle cx="180" cy="180" r="4.2" fill="#111"/><circle cx="216" cy="180" r="4.2" fill="#111"/><circle cx="252" cy="180" r="4.2" fill="#111"/><circle cx="36" cy="216" r="4.2" fill="#111"/><circle cx="72" cy="216" r="4.2" fill="#111"/><circle cx="108" cy="216" r="4.2" fill="#111"/><circle cx="144" cy="216" r="4.2" fill="#111"/><circle cx="180" cy="216" r="4.2" fill="#111"/><circle cx="216" cy="216" r="4.2" fill="#111"/><circle cx="252" cy="216" r="4.2" fill="#111"/><circle cx="36" cy="252" r="4.2" fill="#111"/><circle cx="72" cy="252" r="4.2" fill="#111"/><circle cx="108" cy="252" r="4.2" fill="#111"/><circle cx="144" cy="252" r="4.2" fill="#111"/><circle cx="180" cy="252" r="4.2" fill="#111"/><circle cx="216" cy="252" r="4.2" fill="#111"/><circle cx="252" cy="252" r="4.2" fill="#111"/><circle cx="36" cy="288" r="4.2" fill="#111"/><circle cx="72" cy="288" r="4.2" fill="#111"/><circle cx="108" cy="288" r="4.2" fill="#111"/><circle cx="144" cy="288" r="4.2" fill="#111"/><circle cx="180" cy="288" r="4.2" fill="#111"/><circle cx="216" cy="288" r="4.2" fill="#111"/><circle cx="252" cy="288" r="4.2" fill="#111"/>
  <polygon points="144,36 252,108 144,288 36,108" fill="none" stroke="#111827" stroke-width="3" stroke-linejoin="round"/>
  
  
</svg>