<svg xmlns="http://www.w3.org/2000/svg" viewBox="0 0 418 344" role="img" aria-label="Kite inside its bounding rectangle showing waste">
  <rect width="100%" height="100%" fill="white"/>
  <path d="M 36 36 H 252 V 288 H 36 Z M 144 36 L 252 108 L 144 288 L 36 108 Z" fill="#e2e8f0" fill-opacity="0.75" fill-rule="evenodd"/><rect x="36" y="36" width="216" height="252" fill="none" stroke="#64748b" stroke-width="2" stroke-dasharray="7 5"/>
  <circle cx="36" cy="36" r="4.2" fill="#111"/><circle cx="72" cy="36" r="4.2" fill="#111"/><circle cx="108" cy="36" r="4.2" fill="#111"/><circle cx="144" cy="36" r="4.2" fill="#111"/><circle cx="180" cy="36" r="4.2" fill="#111"/><circle cx="216" cy="36" r="4.2" fill="#111"/><circle cx="252" cy="36" r="4.2" fill="#111"/><circle cx="36" cy="72" r="4.2" fill="#111"/><circle cx="72" cy="72" r="4.2" fill="#111"/><circle cx="108" cy="72" r="4.2" fill="#111"/><circle cx="144" cy="72" r="4.2" fill="#111"/><circle cx="180" cy="72" r="4.2" fill="#111"/><circle cx="216" cy="72" r="4.2" fill="#111"/><circle cx="252" cy="72" r="4.2" fill="#111"/><circle cx="36" cy="108" r="4.2" fill="#111"/><circle cx="72" cy="108" r="4.2" fill="#111"/><circle cx="108" cy="108" r="4.2" fill="#111"/><circle cx="144" cy="108" r="4.2" fill="#111"/><circle cx="180" cy="108" r="4.2" fill="#111"/><circle cx="216" cy="108" r="4.2" fill="#111"/><circle cx="252" cy="108" r="4.2" fill="#111"/><circle cx="36" cy="144" r="4.2" fill="#111"/><circle cx="72" cy="144" r="4.2" fill="#111"/><circle cx="108" cy="144" r="4.2" fill="#111"/><circle cx="144" cy="144" r="4.2" fill="#111"/><circle cx="180" cy="144" r="4.2" fill="#111"/><circle cx="216" cy="144" r="4.2" fill="#111"/><circle cx="252" cy="144" r="4.2" fill="#111"/><circle cx="36" cy="180" r="4.2" fill="#111"/><circle cx="72" cy="180" r="4.2" fill="#111"/><circle cx="108" cy="180" r="4.2" fill="#111"/><circle cx="144" cy="180" r="4.2" fill="#111"/><circle cx="180" cy="180" r="4.2" fill="#111"/><circle cx="216" cy="180" r="4.2" fill="#111"/><circle cx="252" cy="180" r="4.2" fill="#111"/><circle cx="36" cy="216" r="4.2" fill="#111"/><circle cx="72" cy="216" r="4.2" fill="#111"/><circle cx="108" cy="216" r="4.2" fill="#111"/><circle cx="144" cy="216" r="4.2" fill="#111"/><circle cx="180" cy="216" r="4.2" fill="#111"/><circle cx="216" cy="216" r="4.2" fill="#111"/><circle cx="252" cy="216" r="4.2" fill="#111"/><circle cx="36" cy="252" r="4.2" fill="#111"/><circle cx="72" cy="252" r="4.2" fill="#111"/><circle cx="108" cy="252" r="4.2" fill="#111"/><circle cx="144" cy="252" r="4.2" fill="#111"/><circle cx="180" cy="252" r="4.2" fill="#111"/><circle cx="216" cy="252" r="4.2" fill="#111"/><circle cx="252" cy="252" r="4.2" fill="#111"/><circle cx="36" cy="288" r="4.2" fill="#111"/><circle cx="72" cy="288" r="4.2" fill="#111"/><circle cx="108" cy="288" r="4.2" fill="#111"/><circle cx="144" cy="288" r="4.2" fill="#111"/><circle cx="180" cy="288" r="4.2" fill="#111"/><circle cx="216" cy="288" r="4.2" fill="#111"/><circle cx="252" cy="288" r="4.2" fill="#111"/>
  <polygon points="144,36 252,108 144,288 36,108" fill="none" stroke="#111827" stroke-width="3" stroke-linejoin="round"/>
  
  <text x="260" y="162.0" font-size="14" fill="#475569">18 × 21 rectangle</text><text x="115.2" y="306" font-size="14" fill="#475569">waste = rectangle − kite</text>
</svg>